<svg fill="none" viewBox="0 0 210 41" xmlns="http://www.w3.org/2000/svg" xmlns:xlink="http://www.w3.org/1999/xlink"><linearGradient id="a" gradientUnits="userSpaceOnUse" x1="45.2041" x2="209.54" y1=".000032" y2="37.1061"><stop offset="0" stop-color="#3ddb93"/><stop offset="1" stop-color="#468d73"/></linearGradient><g fill="url(#a)"><path clip-rule="evenodd" d="m75.8138 9.77952c-.365-1.42371-.9674-2.71965-1.807-3.88782-.292-.43807-.6571-.87613-1.0951-1.31419l-.3286-.32855c-.1825-.14602-.3468-.27379-.4928-.38331-.1095-.14602-.2556-.27379-.4381-.38331-.219-.18252-.438-.32854-.6571-.43806-.219-.10952-.4198-.23728-.6023-.38331-.5111-.29204-1.0587-.51107-1.6428-.65709l-1.7522-.54758c-.1825-.07301-.3468-.10952-.4928-.10952-.1461 0-.3103-.01825-.4929-.05476-.1825-.07301-.3833-.10951-.6023-.10951s-.4198-.03651-.6023-.10952h-.2738c-.2921-.073012-.6024-.091265-.9309-.05476h-16.8107c-.0731.03651-.1643.05476-.2738.05476-.073-.03651-.1461-.03651-.2191 0-.4015.14602-.6753.32855-.8213.54758-.1826.29204-.2738.78487-.2738 1.47847.0365.6936.0547 1.29594.0547 1.80701v32.74535c0 .4015.0183.8031.0548 1.2047.0365.365.1643.6388.3833.8213.219.1826.4928.2921.8214.3286h4.3259c.292 0 .584.0182.8761.0547.292.0365.5658.0183.8214-.0547.511-.146.8396-.3468.9856-.6024.1825-.292.2555-.6936.219-1.2046v-18.7273h.0329c.111.1332.4916.9244.9668 1.9124.9272 1.9274 2.2147 4.6038 2.563 4.6038h6.5676c.219-.0365.438-.0547.6571-.0547.219 0 .438-.0183.6571-.0548.438-.1095.8761-.1825 1.3142-.219.438-.0365.8578-.1278 1.2594-.2738 1.3142-.4381 2.4824-.9674 3.5045-1.588 1.0587-.6571 1.953-1.4967 2.6832-2.5189.1825-.219.3285-.438.438-.6571l.4381-.7666c.073-.146.1278-.2738.1643-.3833l.219-.4381c.2555-.584.4746-1.2046.6571-1.8617.1825-.6936.3103-1.442.3833-2.2451.1095-2.0078-.0365-3.7236-.4381-5.14728zm-22.0346 9.69218c-.0215-.0258-.0329-.0269-.0329 0v-9.91121c0-.51108.073-.91264.2191-1.20468.1095-.29204.3468-.51107.7118-.65709h.2738l.3286-.10952h2.7926c.9857-.03651 1.9348-.03651 2.8474 0 .9492.03651 1.8253.14602 2.6284.32855.8031.14602 1.4785.38331 2.0261.71186.6571.40155 1.1499.83962 1.4784 1.31419.3286.4746.6024 1.1134.8214 1.9165.1095.4016.1643.9127.1643 1.5333.0365.584.0182 1.0769-.0548 1.4784-.146.4746-.292.9127-.438 1.3142-.1461.3651-.3286.7119-.5476 1.0404-.8396 1.0952-2.0626 1.734-3.6688 1.9166-1.6062.1825-3.3768.2737-5.3115.2737-.3651 0-.7667.0183-1.2047.0548z" fill-rule="evenodd"/><path d="m83.9724 1.01823h-3.9974c-.073 0-.1643.01825-.2738.05476h-.2738l-.438.21903c-.1095.07301-.2008.18253-.2738.32855-.1825.29204-.2738.76661-.2738 1.42371.0365.6571.0547 1.22293.0547 1.6975v34.05952c.0366.365.1643.6388.3834.8214.219.1825.4928.292.8213.3285.3286.0365.6936.0548 1.0952.0548h2.6284c.2555 0 .511.0182.7666.0547.292.0365.5476.0183.7666-.0547.4746-.1095.8031-.3103.9856-.6024.1826-.292.2556-.7118.2191-1.2594v-34.44282c0-.43807-.0183-.85788-.0548-1.25944 0-.43806-.1095-.78487-.3285-1.0404-.1826-.18253-.4381-.29204-.7666-.32855-.3286-.03651-.6754-.05476-1.0404-.05476z"/><path d="m91.0259 10.8603h4.1068c.4016 0 .7666.0183 1.0952.0548.3285.0365.5658.1643.7118.3833.1826.219.2921.5293.3286.9309.0365.365.0548.7483.0548 1.1499v11.992c0 1.3142.0547 2.5554.1642 3.7236.1095 1.1681.4381 2.1355.9857 2.9021.511.7667 1.3324 1.3142 2.464 1.6428.183.0365.329.0547.438.0547.146 0 .31.0183.493.0548.182.0365.383.0548.602.0548s.384-.0183.493-.0548c.183-.073.329-.0913.438-.0548.146.0365.292.0183.438-.0547.767-.1825 1.369-.4198 1.807-.7119.657-.4015 1.168-.9126 1.534-1.5332.401-.6571.675-1.369.821-2.1356.182-.8031.292-1.6792.328-2.6283.037-.9857.055-2.0078.055-3.0665v-11.1706c0-.3651.073-.6571.219-.8762.183-.3285.457-.511.822-.5476.365-.073.803-.1095 1.314-.1095h3.942c.329 0 .603.073.822.2191.292.1825.456.4563.493.8213.036.3651.054.7849.054 1.2595v24.5316c0 .365-.073.6388-.219.8213-.182.2921-.456.4564-.821.4929s-.748.0547-1.15.0547h-2.957c-.402 0-.767-.0182-1.095-.0547-.292-.0365-.529-.1826-.712-.4381-.073-.1095-.146-.2738-.219-.4928-.037-.219-.091-.4381-.164-.6571-.037-.219-.092-.4198-.165-.6023-.073-.1826-.182-.2921-.328-.3286-.073-.073-.164-.0913-.274-.0548-.109.0365-.201.0731-.274.1096-.255.146-.474.3103-.657.4928-.182.1825-.383.3468-.602.4928-.146.1095-.292.2373-.438.3833-.11.1095-.256.219-.438.3286-.84.511-1.826.9126-2.957 1.2046-.256.0731-.511.1096-.767.1096-.255.0365-.529.0912-.821.1642-.146.0365-.31.0365-.493 0-.146 0-.292.0183-.438.0548-.1096.0365-.3468.0365-.7119 0-.3285 0-.5476-.0183-.6571-.0548-.1825 0-.365-.0182-.5476-.0547h-.5476c-.438-.1095-.8578-.2008-1.2594-.2738s-.8031-.1825-1.2047-.3286c-.1825-.073-.3468-.1277-.4928-.1642-.1095-.0731-.2555-.1461-.4381-.2191-1.2776-.6936-2.2998-1.661-3.0664-2.9022-.4746-.7666-.8214-1.6792-1.0404-2.7379-.219-1.0951-.3651-2.245-.4381-3.4497-.0365-1.2412-.0547-2.5006-.0547-3.7783.0365-1.3142.0547-2.6102.0547-3.8878v-7.4471c0-.4746-.0182-1.0222-.0547-1.6428 0-.6571.0912-1.1316.2738-1.4237.1095-.1825.3285-.3468.6571-.4928.219 0 .3833-.0183.4928-.0548z"/><path d="m137.175 10.9698c-2.008-.6936-4.381-1.00385-7.119-.9308-.292.0365-.602.0547-.931.0547-.328 0-.639.0183-.931.0548l-.657.1095c-.219 0-.438.0365-.657.1095-.475.1095-.931.219-1.369.3286-.438.073-.858.2007-1.259.3833-1.059.4015-2.008.9308-2.848 1.5879-.839.6571-1.497 1.515-1.971 2.5737-.146.3285-.274.6753-.383 1.0404-.073.3285-.146.6936-.219 1.0951-.073.1826-.092.3468-.055.4929.036.1095.018.2555-.055.438-.073.2921-.091.6206-.055.9857.037.365.092.6753.165.9309.073.438.146.7848.219 1.0404.474 1.2411 1.223 2.2268 2.245 2.9569.876.6206 1.843 1.0952 2.902 1.4237 1.059.292 2.172.6023 3.34.9309.292.073.584.1278.876.1643.329.0365.639.0912.931.1642.767.2191 1.533.4199 2.3.6024s1.497.4198 2.19.7118c.511.2191.949.4564 1.314.7119.402.2555.731.6388.986 1.1499.073.146.146.3286.219.5476s.073.4563 0 .7118c-.109.6206-.255 1.077-.438 1.369-.255.4016-.602.7301-1.04.9856-.402.2556-.858.4746-1.369.6571-.183.0731-.365.1096-.548.1096-.146 0-.31.0182-.493.0547-.255.073-.566.1278-.931.1643-.328 0-.638-.0365-.93-.1095-.183-.0365-.365-.0365-.548 0-.183 0-.365-.0365-.548-.1095-.62-.1826-1.131-.3651-1.533-.5476-.401-.2191-.821-.5111-1.259-.8762-.146-.073-.329-.2555-.548-.5475-.182-.2921-.31-.5294-.383-.7119-.183-.365-.347-.7118-.493-1.0404-.109-.3285-.365-.5658-.767-.7118-.219-.0731-.474-.1096-.766-.1096h-4.271c-.256 0-.475.0365-.657.1096-.256.1095-.438.292-.548.5475-.073.2191-.091.4929-.055.8214.037.3286.091.5841.165.7666.073.3651.146.6571.219.8761.365.9127.803 1.7158 1.314 2.4094.766 1.0587 1.697 1.8618 2.792 2.4094 1.096.511 2.355.9673 3.779 1.3689.401.1095.821.1825 1.259.219s.876.0913 1.314.1643h.384c.146.0365.273.0548.383.0548.219.073.584.1095 1.095.1095.548 0 .931-.0365 1.15-.1095h.986c.328-.073.657-.1278.985-.1643.365 0 .712-.0365 1.041-.1095.438-.1095.876-.2008 1.314-.2738.474-.073.913-.2008 1.314-.3833 1.059-.4016 2.008-.8761 2.848-1.4237.839-.5476 1.551-1.2595 2.135-2.1356.548-.8396.949-1.807 1.205-2.9022.036-.1825.055-.365.055-.5475.036-.2191.091-.4381.164-.6571v-.2738c.036-.2556.036-.6024 0-1.0404 0-.4746-.018-.8214-.055-1.0404-.073-.2921-.146-.5659-.219-.8214s-.164-.5111-.274-.7666c-.328-.7666-.785-1.4055-1.369-1.9166-.547-.511-1.168-.9856-1.862-1.4237-.292-.1825-.602-.3103-.93-.3833-.292-.1095-.603-.2373-.931-.3833-.73-.292-1.515-.5293-2.355-.7118-.803-.2191-1.643-.4016-2.519-.5476l-2.519-.5476c-.803-.219-1.551-.4746-2.245-.7666-.474-.1825-.894-.4016-1.259-.6571-.329-.2555-.621-.6023-.876-1.0404-.073-.146-.146-.3286-.219-.5476s-.073-.4563 0-.7118c.146-.6206.401-1.077.766-1.369.402-.3285.913-.5841 1.534-.7666.182-.0365.346-.0548.492-.0548l.548-.1095h.383c.256-.073.621-.0912 1.095-.0547.511.0365.895.0912 1.15.1642.511.1095.931.2373 1.26.3833.365.1461.73.3651 1.095.6571.255.1826.438.4198.548.7119l.438.7666c.146.219.31.4381.492.6571.183.219.457.3651.822.4381.219.073.456.1095.712.1095.255-.0365.511-.0548.766-.0548h3.176c.256 0 .475-.0365.657-.1095.256-.073.457-.219.603-.4381.073-.1825.109-.4015.109-.6571 0-.2555-.036-.4928-.109-.7118-.146-.5111-.329-.9674-.548-1.369-.182-.438-.402-.8578-.657-1.2594-1.059-1.6427-2.61-2.7927-4.654-3.4498z"/><path d="m177.141 5.87049c-.292-.21903-.456-.60233-.492-1.14992v-2.62838c0-.32855.054-.60234.164-.82137.146-.292046.438-.511078.876-.657099.073-.036507.146-.036507.219 0 .11 0 .201-.018254.274-.054761.62 0 1.204.018254 1.752.054761.548.036505.913.255536 1.095.657099.11.21903.164.49282.164.82137v.93088c0 .6571-.018 1.27769-.054 1.86178 0 .58409-.238.96739-.712 1.14992-.183.07301-.383.10952-.602.10952h-1.753c-.365 0-.675-.09127-.931-.2738z"/><path d="m181.193 38.0682c.037.3651-.036.6571-.219.8762-.109.219-.273.365-.492.438-.219.0365-.475.0913-.767.1643h-.821c-.475 0-.895-.0182-1.26-.0548-.328-.073-.584-.2555-.766-.5475-.146-.2191-.219-.4929-.219-.8214v-25.353c0-.4015.091-.7118.273-.9309.11-.1825.256-.292.438-.3285.183-.0365.384-.0913.603-.1643.073 0 .146.0183.219.0548.109 0 .201-.0183.274-.0548.474 0 .949.0183 1.423.0548.511 0 .858.146 1.041.438.182.2191.273.5111.273.8762z"/><path clip-rule="evenodd" d="m171.787 38.0135c0 .438-.091.8031-.273 1.0951-.183.2556-.493.4016-.931.4381h-1.26c-.219 0-.438.0183-.657.0548-.182 0-.347-.0365-.493-.1096-.328-.073-.547-.219-.657-.438-.146-.1825-.237-.4016-.273-.6571 0-.2556-.055-.5111-.165-.7666-.036-.073-.091-.1278-.164-.1643-.036-.073-.091-.146-.164-.219-.365-.0365-.657.0365-.876.219-.183.1825-.384.3651-.603.5476-.73.5476-1.46.9674-2.19 1.2594-.657.2921-1.424.5111-2.3.6571-.839.146-1.716.219-2.628.219-.876.0365-1.753-.0182-2.629-.1642-.876-.1095-1.642-.3103-2.299-.6024-1.899-.8031-3.432-1.88-4.6-3.2307-1.168-1.3872-2.081-3.103-2.738-5.1473-.146-.3285-.256-.657-.329-.9856-.036-.365-.109-.7301-.219-1.0952-.036-.1825-.054-.365-.054-.5475 0-.1826-.019-.3651-.055-.5476-.073-.1825-.11-.3651-.11-.5476.037-.219.037-.4198 0-.6023v-.5476c-.073-.1825-.109-.4198-.109-.7119 0-.292.036-.5293.109-.7118v-.6024c.073-.2555.092-.511.055-.7666 0-.292.037-.5658.11-.8214.036-.1825.054-.3468.054-.4928s.019-.3103.055-.4928c.11-.365.201-.7119.274-1.0404.073-.3651.164-.7119.274-1.0404.474-1.3872 1.077-2.6284 1.807-3.7236.766-1.1316 1.679-2.0625 2.738-2.7926.62-.4381 1.259-.8031 1.916-1.0952.694-.292 1.442-.5476 2.245-.7666.256-.0365.493-.073.712-.1095.256-.0365.511-.0913.767-.1643h.547c.292-.073.712-.1095 1.26-.1095.584 0 1.022.0365 1.314.1095.146.0365.347.0548.602.0548.402.1095.803.2008 1.205.2738.401.0365.785.146 1.15.3285.547.2191 1.058.4563 1.533.7119.511.2555.986.5476 1.424.8761.219.1825.438.3833.657.6023.255.1826.584.2373.986.1643.073-.1095.127-.2008.164-.2738.073-.073.128-.1825.164-.3285.11-.3286.146-.7484.11-1.2595v-9.36359c0-.6571.091-1.13167.273-1.42371.146-.255538.365-.419812.657-.492822h.274c.11-.036505.201-.054757.274-.054757.511-.036507 1.04-.036507 1.588 0 .584 0 .986.14602 1.205.438059.182.29205.273.6571.273 1.09517zm-4.435-11.773c.073-.1825.11-.4198.11-.7119 0-.3285-.037-.584-.11-.7666v-.8213c-.073-.3286-.128-.6571-.164-.9857-.037-.365-.11-.6936-.219-.9856-.073-.2921-.146-.5659-.219-.8214-.037-.2555-.11-.5111-.219-.7666-.438-1.0952-1.004-2.0626-1.698-2.9022-.693-.8396-1.57-1.4967-2.628-1.9713-.365-.1825-.749-.3103-1.15-.3833-.365-.1095-.767-.2008-1.205-.2738-.292-.073-.62-.1095-.985-.1095h-.986c-.183.0365-.347.073-.493.1095h-.493c-.292.073-.602.146-.931.219-.292.0731-.584.1643-.876.2738-1.168.5111-2.117 1.2595-2.847 2.2451-.694.9492-1.26 2.0626-1.698 3.3403-.146.4015-.255.8213-.328 1.2594-.037.4016-.091.8031-.164 1.2047 0 .146-.019.292-.055.438v.3833c-.073.1826-.11.3834-.11.6024.037.219.055.4198.055.6023v1.2047c0 .3651.037.7119.11 1.0404.036.1095.054.292.054.5476.073.2555.128.5111.165.7666l.219.7666c.401 1.2777.949 2.3729 1.642 3.2855.694.9126 1.57 1.661 2.629 2.2451.328.1825.657.3285.985.438.329.1096.694.2191 1.096.3286.182.073.365.0912.547.0547.219-.0365.42-.0182.602.0548.146.0365.293.0548.439.0548h.985c.11-.0365.292-.0548.548-.0548.292-.073.584-.1278.876-.1643.292-.073.566-.1642.821-.2738 1.205-.511 2.172-1.1499 2.902-1.9165.767-.8031 1.406-1.807 1.917-3.0117.182-.4015.31-.8031.383-1.2047.073-.4015.165-.8031.274-1.2046.073-.1461.11-.2738.11-.3833 0-.1461.018-.2921.054-.4381.037-.219.037-.4381 0-.6571 0-.219.019-.4381.055-.6571z" fill-rule="evenodd"/><path d="m204.503 11.7296c-1.387-.6936-3.231-1.0039-5.531-.9309h-.547c-.183 0-.365.0183-.548.0548-.328.073-.675.1277-1.04.1643-.329.0365-.639.1095-.931.219-.694.219-1.314.4928-1.862.8214-.511.292-1.022.6205-1.533.9856-.292.219-.584.5111-.876.8761-.256.3651-.603.5294-1.041.4929-.219-.1461-.365-.3286-.438-.5476-.146-.4746-.2-.8944-.164-1.2595.037-.4015-.146-.7301-.548-.9856-.109-.073-.31-.1278-.602-.1643-.255-.0365-.529-.0547-.821-.0547s-.584.0182-.876.0547c-.256.0365-.457.073-.603.1095-.255.073-.438.2191-.547.4381-.146.1825-.219.4381-.219.7666v25.5173c0 .511.146.8578.438 1.0404.182.146.401.2373.657.2738.255.0365.529.0547.821.0547.475 0 .931-.0182 1.369-.0547.475 0 .803-.1461.986-.4381.182-.2555.274-.5841.274-.9856v-12.9777c0-.1825-.019-.3468-.055-.4928 0-.1461.018-.2738.055-.3833v-1.15c.073-.146.091-.292.054-.438-.036-.1825-.018-.3651.055-.5476.073-.292.128-.5841.164-.8761.037-.3286.11-.6389.219-.9309.584-1.8253 1.515-3.1942 2.793-4.1069.146-.073.274-.146.383-.219.11-.073.238-.146.384-.219.365-.2191.748-.3833 1.15-.4929.438-.146.894-.2738 1.369-.3833.146-.0365.273-.0365.383 0 .109 0 .237-.0365.383-.1095.146-.0365.402-.0547.767-.0547.401-.0365.693-.0365.876 0 .219.073.438.1277.657.1642.256 0 .493.0365.712.1095.766.2556 1.442.6206 2.026 1.0952.584.4381 1.022 1.0222 1.314 1.7523.292.6936.456 1.5332.493 2.5188.036.9492.055 1.9166.055 2.9022v14.8395c0 .4015.091.7301.273.9856.183.292.493.4381.931.4381.438.0365.895.0547 1.369.0547.219 0 .42-.0182.603-.0547.219 0 .419-.0365.602-.1096.475-.1825.712-.584.712-1.2046.036-.6206.055-1.2412.055-1.8618v-14.4014c0-.8396-.019-1.661-.055-2.4641-.037-.8031-.146-1.5515-.329-2.2451-.109-.438-.237-.8578-.383-1.2594-.11-.4381-.274-.8396-.493-1.2047-.84-1.3872-1.953-2.4276-3.34-3.1212z"/></g><rect fill="#eaeaea" height="39.0755" rx="3.64263" width="7.28526" y="1"/><rect fill="#eaeaea" height="39.0755" rx="3.64263" width="7.28526" x="9.27214" y="1"/><rect fill="#eaeaea" height="39.0755" rx="3.64263" width="7.28526" x="18.5443" y="1"/><rect fill="#eaeaea" height="39.0755" rx="3.64263" width="7.28526" x="27.8164" y="1"/><rect fill="#3ddb93" height="24.505" rx="3.64263" width="7.28526" y="15.5706"/><rect fill="#468d73" height="19.8689" rx="3.64263" width="7.28526" x="9.27214" y="20.2065"/><rect fill="#3ddb93" height="33.1148" rx="3.64263" width="7.28526" x="18.5443" y="6.96069"/><rect fill="#468d73" height="11.259" rx="3.64263" width="7.28526" x="27.8164" y="28.8164"/></svg>