<svg fill="none" viewBox="0 0 304 45" xmlns="http://www.w3.org/2000/svg" xmlns:xlink="http://www.w3.org/1999/xlink"><linearGradient id="a" gradientUnits="userSpaceOnUse" x1="45.2041" x2="209.54" y1=".000032" y2="37.1061"><stop offset="0" stop-color="#3ddb93"/><stop offset="1" stop-color="#468d73"/></linearGradient><g fill="url(#a)"><path clip-rule="evenodd" d="m75.8138 9.77952c-.365-1.42371-.9674-2.71965-1.807-3.88782-.292-.43807-.6571-.87613-1.0951-1.31419l-.3286-.32855c-.1825-.14602-.3468-.27379-.4928-.38331-.1095-.14602-.2556-.27379-.4381-.38331-.219-.18252-.438-.32854-.6571-.43806-.219-.10952-.4198-.23728-.6023-.38331-.5111-.29204-1.0587-.51107-1.6428-.65709l-1.7522-.54758c-.1825-.07301-.3468-.10952-.4928-.10952-.1461 0-.3103-.01825-.4929-.05476-.1825-.07301-.3833-.10951-.6023-.10951s-.4198-.03651-.6023-.10952h-.2738c-.2921-.073012-.6024-.091265-.9309-.05476h-16.8107c-.0731.03651-.1643.05476-.2738.05476-.073-.03651-.1461-.03651-.2191 0-.4015.14602-.6753.32855-.8213.54758-.1826.29204-.2738.78487-.2738 1.47847.0365.6936.0547 1.29594.0547 1.80701v32.74535c0 .4015.0183.8031.0548 1.2047.0365.365.1643.6388.3833.8213.219.1826.4928.2921.8214.3286h4.3259c.292 0 .584.0182.8761.0547.292.0365.5658.0183.8214-.0547.511-.146.8396-.3468.9856-.6024.1825-.292.2555-.6936.219-1.2046v-18.7273h.0329c.111.1332.4916.9244.9668 1.9124.9272 1.9274 2.2147 4.6038 2.563 4.6038h6.5676c.219-.0365.438-.0547.6571-.0547.219 0 .438-.0183.6571-.0548.438-.1095.8761-.1825 1.3142-.219.438-.0365.8578-.1278 1.2594-.2738 1.3142-.4381 2.4824-.9674 3.5045-1.588 1.0587-.6571 1.953-1.4967 2.6832-2.5189.1825-.219.3285-.438.438-.6571l.4381-.7666c.073-.146.1278-.2738.1643-.3833l.219-.4381c.2555-.584.4746-1.2046.6571-1.8617.1825-.6936.3103-1.442.3833-2.2451.1095-2.0078-.0365-3.7236-.4381-5.14728zm-22.0346 9.69218c-.0215-.0258-.0329-.0269-.0329 0v-9.91121c0-.51108.073-.91264.2191-1.20468.1095-.29204.3468-.51107.7118-.65709h.2738l.3286-.10952h2.7926c.9857-.03651 1.9348-.03651 2.8474 0 .9492.03651 1.8253.14602 2.6284.32855.8031.14602 1.4785.38331 2.0261.71186.6571.40155 1.1499.83962 1.4784 1.31419.3286.4746.6024 1.1134.8214 1.9165.1095.4016.1643.9127.1643 1.5333.0365.584.0182 1.0769-.0548 1.4784-.146.4746-.292.9127-.438 1.3142-.1461.3651-.3286.7119-.5476 1.0404-.8396 1.0952-2.0626 1.734-3.6688 1.9166-1.6062.1825-3.3768.2737-5.3115.2737-.3651 0-.7667.0183-1.2047.0548z" fill-rule="evenodd"/><path d="m83.9724 1.01823h-3.9974c-.073 0-.1643.01825-.2738.05476h-.2738l-.438.21903c-.1095.07301-.2008.18253-.2738.32855-.1825.29204-.2738.76661-.2738 1.42371.0365.6571.0547 1.22293.0547 1.6975v34.05952c.0366.365.1643.6388.3834.8214.219.1825.4928.292.8213.3285.3286.0365.6936.0548 1.0952.0548h2.6284c.2555 0 .511.0182.7666.0547.292.0365.5476.0183.7666-.0547.4746-.1095.8031-.3103.9856-.6024.1826-.292.2556-.7118.2191-1.2594v-34.44282c0-.43807-.0183-.85788-.0548-1.25944 0-.43806-.1095-.78487-.3285-1.0404-.1826-.18253-.4381-.29204-.7666-.32855-.3286-.03651-.6754-.05476-1.0404-.05476z"/><path d="m91.0259 10.8603h4.1068c.4016 0 .7666.0183 1.0952.0548.3285.0365.5658.1643.7118.3833.1826.219.2921.5293.3286.9309.0365.365.0548.7483.0548 1.1499v11.992c0 1.3142.0547 2.5554.1642 3.7236.1095 1.1681.4381 2.1355.9857 2.9021.511.7667 1.3324 1.3142 2.464 1.6428.183.0365.329.0547.438.0547.146 0 .31.0183.493.0548.182.0365.383.0548.602.0548s.384-.0183.493-.0548c.183-.073.329-.0913.438-.0548.146.0365.292.0183.438-.0547.767-.1825 1.369-.4198 1.807-.7119.657-.4015 1.168-.9126 1.534-1.5332.401-.6571.675-1.369.821-2.1356.182-.8031.292-1.6792.328-2.6283.037-.9857.055-2.0078.055-3.0665v-11.1706c0-.3651.073-.6571.219-.8762.183-.3285.457-.511.822-.5476.365-.073.803-.1095 1.314-.1095h3.942c.329 0 .603.073.822.2191.292.1825.456.4563.493.8213.036.3651.054.7849.054 1.2595v24.5316c0 .365-.073.6388-.219.8213-.182.2921-.456.4564-.821.4929s-.748.0547-1.15.0547h-2.957c-.402 0-.767-.0182-1.095-.0547-.292-.0365-.529-.1826-.712-.4381-.073-.1095-.146-.2738-.219-.4928-.037-.219-.091-.4381-.164-.6571-.037-.219-.092-.4198-.165-.6023-.073-.1826-.182-.2921-.328-.3286-.073-.073-.164-.0913-.274-.0548-.109.0365-.201.0731-.274.1096-.255.146-.474.3103-.657.4928-.182.1825-.383.3468-.602.4928-.146.1095-.292.2373-.438.3833-.11.1095-.256.219-.438.3286-.84.511-1.826.9126-2.957 1.2046-.256.0731-.511.1096-.767.1096-.255.0365-.529.0912-.821.1642-.146.0365-.31.0365-.493 0-.146 0-.292.0183-.438.0548-.1096.0365-.3468.0365-.7119 0-.3285 0-.5476-.0183-.6571-.0548-.1825 0-.365-.0182-.5476-.0547h-.5476c-.438-.1095-.8578-.2008-1.2594-.2738s-.8031-.1825-1.2047-.3286c-.1825-.073-.3468-.1277-.4928-.1642-.1095-.0731-.2555-.1461-.4381-.2191-1.2776-.6936-2.2998-1.661-3.0664-2.9022-.4746-.7666-.8214-1.6792-1.0404-2.7379-.219-1.0951-.3651-2.245-.4381-3.4497-.0365-1.2412-.0547-2.5006-.0547-3.7783.0365-1.3142.0547-2.6102.0547-3.8878v-7.4471c0-.4746-.0182-1.0222-.0547-1.6428 0-.6571.0912-1.1316.2738-1.4237.1095-.1825.3285-.3468.6571-.4928.219 0 .3833-.0183.4928-.0548z"/><path d="m137.175 10.9698c-2.008-.6936-4.381-1.00385-7.119-.9308-.292.0365-.602.0547-.931.0547-.328 0-.639.0183-.931.0548l-.657.1095c-.219 0-.438.0365-.657.1095-.475.1095-.931.219-1.369.3286-.438.073-.858.2007-1.259.3833-1.059.4015-2.008.9308-2.848 1.5879-.839.6571-1.497 1.515-1.971 2.5737-.146.3285-.274.6753-.383 1.0404-.073.3285-.146.6936-.219 1.0951-.073.1826-.092.3468-.055.4929.036.1095.018.2555-.055.438-.073.2921-.091.6206-.055.9857.037.365.092.6753.165.9309.073.438.146.7848.219 1.0404.474 1.2411 1.223 2.2268 2.245 2.9569.876.6206 1.843 1.0952 2.902 1.4237 1.059.292 2.172.6023 3.34.9309.292.073.584.1278.876.1643.329.0365.639.0912.931.1642.767.2191 1.533.4199 2.3.6024s1.497.4198 2.19.7118c.511.2191.949.4564 1.314.7119.402.2555.731.6388.986 1.1499.073.146.146.3286.219.5476s.073.4563 0 .7118c-.109.6206-.255 1.077-.438 1.369-.255.4016-.602.7301-1.04.9856-.402.2556-.858.4746-1.369.6571-.183.0731-.365.1096-.548.1096-.146 0-.31.0182-.493.0547-.255.073-.566.1278-.931.1643-.328 0-.638-.0365-.93-.1095-.183-.0365-.365-.0365-.548 0-.183 0-.365-.0365-.548-.1095-.62-.1826-1.131-.3651-1.533-.5476-.401-.2191-.821-.5111-1.259-.8762-.146-.073-.329-.2555-.548-.5475-.182-.2921-.31-.5294-.383-.7119-.183-.365-.347-.7118-.493-1.0404-.109-.3285-.365-.5658-.767-.7118-.219-.0731-.474-.1096-.766-.1096h-4.271c-.256 0-.475.0365-.657.1096-.256.1095-.438.292-.548.5475-.073.2191-.091.4929-.055.8214.037.3286.091.5841.165.7666.073.3651.146.6571.219.8761.365.9127.803 1.7158 1.314 2.4094.766 1.0587 1.697 1.8618 2.792 2.4094 1.096.511 2.355.9673 3.779 1.3689.401.1095.821.1825 1.259.219s.876.0913 1.314.1643h.384c.146.0365.273.0548.383.0548.219.073.584.1095 1.095.1095.548 0 .931-.0365 1.15-.1095h.986c.328-.073.657-.1278.985-.1643.365 0 .712-.0365 1.041-.1095.438-.1095.876-.2008 1.314-.2738.474-.073.913-.2008 1.314-.3833 1.059-.4016 2.008-.8761 2.848-1.4237.839-.5476 1.551-1.2595 2.135-2.1356.548-.8396.949-1.807 1.205-2.9022.036-.1825.055-.365.055-.5475.036-.2191.091-.4381.164-.6571v-.2738c.036-.2556.036-.6024 0-1.0404 0-.4746-.018-.8214-.055-1.0404-.073-.2921-.146-.5659-.219-.8214s-.164-.5111-.274-.7666c-.328-.7666-.785-1.4055-1.369-1.9166-.547-.511-1.168-.9856-1.862-1.4237-.292-.1825-.602-.3103-.93-.3833-.292-.1095-.603-.2373-.931-.3833-.73-.292-1.515-.5293-2.355-.7118-.803-.2191-1.643-.4016-2.519-.5476l-2.519-.5476c-.803-.219-1.551-.4746-2.245-.7666-.474-.1825-.894-.4016-1.259-.6571-.329-.2555-.621-.6023-.876-1.0404-.073-.146-.146-.3286-.219-.5476s-.073-.4563 0-.7118c.146-.6206.401-1.077.766-1.369.402-.3285.913-.5841 1.534-.7666.182-.0365.346-.0548.492-.0548l.548-.1095h.383c.256-.073.621-.0912 1.095-.0547.511.0365.895.0912 1.15.1642.511.1095.931.2373 1.26.3833.365.1461.73.3651 1.095.6571.255.1826.438.4198.548.7119l.438.7666c.146.219.31.4381.492.6571.183.219.457.3651.822.4381.219.073.456.1095.712.1095.255-.0365.511-.0548.766-.0548h3.176c.256 0 .475-.0365.657-.1095.256-.073.457-.219.603-.4381.073-.1825.109-.4015.109-.6571 0-.2555-.036-.4928-.109-.7118-.146-.5111-.329-.9674-.548-1.369-.182-.438-.402-.8578-.657-1.2594-1.059-1.6427-2.61-2.7927-4.654-3.4498z"/><path d="m177.141 5.87049c-.292-.21903-.456-.60233-.492-1.14992v-2.62838c0-.32855.054-.60234.164-.82137.146-.292046.438-.511078.876-.657099.073-.036507.146-.036507.219 0 .11 0 .201-.018254.274-.054761.62 0 1.204.018254 1.752.054761.548.036505.913.255536 1.095.657099.11.21903.164.49282.164.82137v.93088c0 .6571-.018 1.27769-.054 1.86178 0 .58409-.238.96739-.712 1.14992-.183.07301-.383.10952-.602.10952h-1.753c-.365 0-.675-.09127-.931-.2738z"/><path d="m181.193 38.0682c.037.3651-.036.6571-.219.8762-.109.219-.273.365-.492.438-.219.0365-.475.0913-.767.1643h-.821c-.475 0-.895-.0182-1.26-.0548-.328-.073-.584-.2555-.766-.5475-.146-.2191-.219-.4929-.219-.8214v-25.353c0-.4015.091-.7118.273-.9309.11-.1825.256-.292.438-.3285.183-.0365.384-.0913.603-.1643.073 0 .146.0183.219.0548.109 0 .201-.0183.274-.0548.474 0 .949.0183 1.423.0548.511 0 .858.146 1.041.438.182.2191.273.5111.273.8762z"/><path clip-rule="evenodd" d="m171.787 38.0135c0 .438-.091.8031-.273 1.0951-.183.2556-.493.4016-.931.4381h-1.26c-.219 0-.438.0183-.657.0548-.182 0-.347-.0365-.493-.1096-.328-.073-.547-.219-.657-.438-.146-.1825-.237-.4016-.273-.6571 0-.2556-.055-.5111-.165-.7666-.036-.073-.091-.1278-.164-.1643-.036-.073-.091-.146-.164-.219-.365-.0365-.657.0365-.876.219-.183.1825-.384.3651-.603.5476-.73.5476-1.46.9674-2.19 1.2594-.657.2921-1.424.5111-2.3.6571-.839.146-1.716.219-2.628.219-.876.0365-1.753-.0182-2.629-.1642-.876-.1095-1.642-.3103-2.299-.6024-1.899-.8031-3.432-1.88-4.6-3.2307-1.168-1.3872-2.081-3.103-2.738-5.1473-.146-.3285-.256-.657-.329-.9856-.036-.365-.109-.7301-.219-1.0952-.036-.1825-.054-.365-.054-.5475 0-.1826-.019-.3651-.055-.5476-.073-.1825-.11-.3651-.11-.5476.037-.219.037-.4198 0-.6023v-.5476c-.073-.1825-.109-.4198-.109-.7119 0-.292.036-.5293.109-.7118v-.6024c.073-.2555.092-.511.055-.7666 0-.292.037-.5658.11-.8214.036-.1825.054-.3468.054-.4928s.019-.3103.055-.4928c.11-.365.201-.7119.274-1.0404.073-.3651.164-.7119.274-1.0404.474-1.3872 1.077-2.6284 1.807-3.7236.766-1.1316 1.679-2.0625 2.738-2.7926.62-.4381 1.259-.8031 1.916-1.0952.694-.292 1.442-.5476 2.245-.7666.256-.0365.493-.073.712-.1095.256-.0365.511-.0913.767-.1643h.547c.292-.073.712-.1095 1.26-.1095.584 0 1.022.0365 1.314.1095.146.0365.347.0548.602.0548.402.1095.803.2008 1.205.2738.401.0365.785.146 1.15.3285.547.2191 1.058.4563 1.533.7119.511.2555.986.5476 1.424.8761.219.1825.438.3833.657.6023.255.1826.584.2373.986.1643.073-.1095.127-.2008.164-.2738.073-.073.128-.1825.164-.3285.11-.3286.146-.7484.11-1.2595v-9.36359c0-.6571.091-1.13167.273-1.42371.146-.255538.365-.419812.657-.492822h.274c.11-.036505.201-.054757.274-.054757.511-.036507 1.04-.036507 1.588 0 .584 0 .986.14602 1.205.438059.182.29205.273.6571.273 1.09517zm-4.435-11.773c.073-.1825.11-.4198.11-.7119 0-.3285-.037-.584-.11-.7666v-.8213c-.073-.3286-.128-.6571-.164-.9857-.037-.365-.11-.6936-.219-.9856-.073-.2921-.146-.5659-.219-.8214-.037-.2555-.11-.5111-.219-.7666-.438-1.0952-1.004-2.0626-1.698-2.9022-.693-.8396-1.57-1.4967-2.628-1.9713-.365-.1825-.749-.3103-1.15-.3833-.365-.1095-.767-.2008-1.205-.2738-.292-.073-.62-.1095-.985-.1095h-.986c-.183.0365-.347.073-.493.1095h-.493c-.292.073-.602.146-.931.219-.292.0731-.584.1643-.876.2738-1.168.5111-2.117 1.2595-2.847 2.2451-.694.9492-1.26 2.0626-1.698 3.3403-.146.4015-.255.8213-.328 1.2594-.037.4016-.091.8031-.164 1.2047 0 .146-.019.292-.055.438v.3833c-.073.1826-.11.3834-.11.6024.037.219.055.4198.055.6023v1.2047c0 .3651.037.7119.11 1.0404.036.1095.054.292.054.5476.073.2555.128.5111.165.7666l.219.7666c.401 1.2777.949 2.3729 1.642 3.2855.694.9126 1.57 1.661 2.629 2.2451.328.1825.657.3285.985.438.329.1096.694.2191 1.096.3286.182.073.365.0912.547.0547.219-.0365.42-.0182.602.0548.146.0365.293.0548.439.0548h.985c.11-.0365.292-.0548.548-.0548.292-.073.584-.1278.876-.1643.292-.073.566-.1642.821-.2738 1.205-.511 2.172-1.1499 2.902-1.9165.767-.8031 1.406-1.807 1.917-3.0117.182-.4015.31-.8031.383-1.2047.073-.4015.165-.8031.274-1.2046.073-.1461.11-.2738.11-.3833 0-.1461.018-.2921.054-.4381.037-.219.037-.4381 0-.6571 0-.219.019-.4381.055-.6571z" fill-rule="evenodd"/><path d="m204.503 11.7296c-1.387-.6936-3.231-1.0039-5.531-.9309h-.547c-.183 0-.365.0183-.548.0548-.328.073-.675.1277-1.04.1643-.329.0365-.639.1095-.931.219-.694.219-1.314.4928-1.862.8214-.511.292-1.022.6205-1.533.9856-.292.219-.584.5111-.876.8761-.256.3651-.603.5294-1.041.4929-.219-.1461-.365-.3286-.438-.5476-.146-.4746-.2-.8944-.164-1.2595.037-.4015-.146-.7301-.548-.9856-.109-.073-.31-.1278-.602-.1643-.255-.0365-.529-.0547-.821-.0547s-.584.0182-.876.0547c-.256.0365-.457.073-.603.1095-.255.073-.438.2191-.547.4381-.146.1825-.219.4381-.219.7666v25.5173c0 .511.146.8578.438 1.0404.182.146.401.2373.657.2738.255.0365.529.0547.821.0547.475 0 .931-.0182 1.369-.0547.475 0 .803-.1461.986-.4381.182-.2555.274-.5841.274-.9856v-12.9777c0-.1825-.019-.3468-.055-.4928 0-.1461.018-.2738.055-.3833v-1.15c.073-.146.091-.292.054-.438-.036-.1825-.018-.3651.055-.5476.073-.292.128-.5841.164-.8761.037-.3286.11-.6389.219-.9309.584-1.8253 1.515-3.1942 2.793-4.1069.146-.073.274-.146.383-.219.11-.073.238-.146.384-.219.365-.2191.748-.3833 1.15-.4929.438-.146.894-.2738 1.369-.3833.146-.0365.273-.0365.383 0 .109 0 .237-.0365.383-.1095.146-.0365.402-.0547.767-.0547.401-.0365.693-.0365.876 0 .219.073.438.1277.657.1642.256 0 .493.0365.712.1095.766.2556 1.442.6206 2.026 1.0952.584.4381 1.022 1.0222 1.314 1.7523.292.6936.456 1.5332.493 2.5188.036.9492.055 1.9166.055 2.9022v14.8395c0 .4015.091.7301.273.9856.183.292.493.4381.931.4381.438.0365.895.0547 1.369.0547.219 0 .42-.0182.603-.0547.219 0 .419-.0365.602-.1096.475-.1825.712-.584.712-1.2046.036-.6206.055-1.2412.055-1.8618v-14.4014c0-.8396-.019-1.661-.055-2.4641-.037-.8031-.146-1.5515-.329-2.2451-.109-.438-.237-.8578-.383-1.2594-.11-.4381-.274-.8396-.493-1.2047-.84-1.3872-1.953-2.4276-3.34-3.1212z"/></g><rect fill="#eaeaea" height="39.0755" rx="3.64263" width="7.28526" y="1"/><rect fill="#eaeaea" height="39.0755" rx="3.64263" width="7.28526" x="9.27214" y="1"/><rect fill="#eaeaea" height="39.0755" rx="3.64263" width="7.28526" x="18.5443" y="1"/><rect fill="#eaeaea" height="39.0755" rx="3.64263" width="7.28526" x="27.8164" y="1"/><rect fill="#3ddb93" height="24.505" rx="3.64263" width="7.28526" y="15.5706"/><rect fill="#468d73" height="19.8689" rx="3.64263" width="7.28526" x="9.27214" y="20.2065"/><rect fill="#3ddb93" height="33.1148" rx="3.64263" width="7.28526" x="18.5443" y="6.96069"/><rect fill="#468d73" height="11.259" rx="3.64263" width="7.28526" x="27.8164" y="28.8164"/><path d="m241.901 32.8811c.038.208.038.4821 0 .8224-.019.3403-.047.605-.085.794-.038.1891-.075.3687-.113.5388s-.085.3308-.142.4821c-.397.9452-1.012 1.7204-1.843 2.3253-.322.2269-.671.4254-1.05.5955-.359.1513-.746.2931-1.162.4254-.208.0756-.426.1323-.652.1701-.227.0189-.445.0473-.653.0851-.094.0189-.189.0284-.283.0284-.076 0-.161.0094-.255.0283-.076.0189-.161.0189-.256 0-.075-.0189-.16-.0094-.255.0284-.076.0189-.161.0283-.255.0283-.076-.0189-.161-.0283-.255-.0283h-8.281c-.321 0-.595-.0095-.822-.0284-.208-.0378-.359-.1701-.454-.397-.057-.1512-.085-.3781-.085-.6806.019-.3213.028-.586.028-.794v-16.646c0-.2268-.009-.4631-.028-.7089 0-.2647.047-.4726.142-.6239.075-.1323.217-.2268.425-.2836.038-.0189.076-.0189.114 0 .037 0 .075-.0094.113-.0283h8.451.397c.132-.0189.255-.0189.368 0 .095.0378.189.0472.284.0283.094-.0189.189-.0189.283 0h.171c.113.0378.226.0568.34.0568.132-.019.265-.0095.397.0283.151.0378.293.0662.425.0851.151.0189.303.0472.454.0851.359.1323.699.2646 1.021.397.321.1134.614.2646.879.4537.378.2647.69.5955.936.9925s.444.8507.595 1.3612c.038.1323.057.2647.057.397.019.1323.047.2741.085.4254.019.0756.019.1512 0 .2268 0 .0756.01.1513.028.2269.019.0567.019.1323 0 .2268 0 .0757-.009.1324-.028.1702v.2552c0 .0567-.009.1229-.028.1985v.1702c-.038.1323-.066.2552-.085.3686 0 .0945-.019.1891-.057.2836-.246.6806-.567 1.2383-.964 1.6731-.133.1323-.274.2458-.426.3403-.151.0945-.283.2174-.397.3686-.037.0378-.085.0946-.141.1702-.038.0567-.038.1323 0 .2268.037.1513.16.2836.368.3971.208.0945.388.189.539.2835.51.3403.926.7373 1.248 1.1911.302.4348.539.9452.709 1.5313.056.1512.094.3119.113.4821.019.1512.047.3024.085.4537zm-12.335-10.1521c-.095.1324-.142.3025-.142.5105v.5955 1.5313c0 .1323-.01.2741-.029.4254 0 .1323.01.2457.029.3403v.2835c.038.1135.066.2175.085.312.019.0756.047.1512.085.2268.076.0946.189.1607.34.1986.17.0378.35.0661.539.085h.624c.208-.0189.397-.0283.567-.0283.284 0 .577.0094.879.0283h.936c.321 0 .624-.0094.907-.0283.284-.0378.53-.0946.738-.1702.567-.189.992-.5199 1.276-.9925.132-.2458.217-.5672.255-.9642.038-.6427-.057-1.1437-.284-1.5029-.226-.3781-.557-.6712-.992-.8791-.113-.0378-.236-.0662-.369-.0851-.132-.0378-.274-.0756-.425-.1134-.076-.0189-.189-.0284-.34-.0284-.227-.0567-.492-.0756-.794-.0567-.284 0-.558 0-.823 0h-2.41c-.038.0189-.085.0284-.142.0284-.038 0-.076.0094-.113.0283-.189.0567-.322.1418-.397.2552zm7.94 10.6058c.038-.2646.019-.5482-.057-.8507-.057-.3025-.123-.5293-.198-.6806-.265-.6806-.785-1.1532-1.56-1.4179-.322-.0945-.681-.1512-1.078-.1701-.378-.0189-.775-.0284-1.191-.0284h-3.204c-.038.0378-.076.0567-.114.0567-.019-.0189-.047-.0283-.085-.0283-.227.0567-.378.1512-.453.2836-.095.1512-.142.3497-.142.5955v.6522 2.5238.709c.019.2268.075.4064.17.5388.076.0945.198.1701.369.2268.17.0379.359.0662.567.0851h.68c.227-.0189.426-.0283.596-.0283.567 0 1.115.0094 1.645.0283.529 0 1.03-.0283 1.503-.0851.472-.0756.888-.189 1.247-.3402.378-.1702.681-.4254.908-.7657.094-.1512.17-.3214.227-.5104.056-.208.113-.416.17-.6239z" fill="#404542"/><path d="m244.031 19.0142h2.07c.189 0 .369.0094.539.0283s.302.0757.397.1702c.113.1323.17.3119.17.5388.019.2079.028.4253.028.6522v17.043.794c.019.2836-.019.501-.113.6523-.095.1512-.265.2552-.511.3119-.113.0378-.245.0473-.397.0283-.132-.0189-.264-.0283-.397-.0283h-1.361c-.208 0-.397-.0095-.567-.0284s-.312-.0756-.425-.1701c-.114-.0945-.18-.2363-.199-.4254 0-.2079 0-.4159 0-.6239v-17.0146c0-.2458-.009-.5388-.028-.8791 0-.3403.047-.586.142-.7373.038-.0756.085-.1323.141-.1701.076-.0378.152-.0757.227-.1135h.142c.057-.0189.104-.0283.142-.0283z" fill="#404542"/><path d="m263.649 31.3214c.038.1135.057.2742.057.4821 0 .208-.019.3687-.057.4821v.2836c-.038.1512-.057.3025-.057.4537.019.1512.01.3025-.028.4537-.038.1324-.066.2552-.085.3687-.019.1134-.038.2363-.057.3686-.075.208-.141.4254-.198.6523-.057.2079-.133.4064-.227.5955-.397.9074-.917 1.6447-1.56 2.2119-.643.5671-1.418 1.0398-2.325 1.4179-.227.0945-.463.1607-.709.1985-.227.0567-.463.1134-.709.1701-.094.0378-.198.0567-.312.0567-.113 0-.217.0095-.312.0284-.057 0-.123 0-.198 0-.057.0189-.114.0283-.17.0283-.095.0189-.246.0284-.454.0284-.208.0189-.369.0095-.482-.0284h-.284c-.094-.0189-.198-.0283-.312-.0283-.094.0189-.189.0094-.283-.0284-.076-.0189-.152-.0283-.227-.0283-.057 0-.133-.0095-.227-.0284-.189-.0567-.378-.104-.567-.1418s-.369-.0945-.539-.1701c-.227-.0756-.444-.1513-.652-.2269-.189-.0756-.388-.1701-.596-.2836-.661-.397-1.229-.8602-1.701-1.3895-.473-.5293-.87-1.1627-1.191-1.9-.095-.1701-.17-.3497-.227-.5388-.038-.189-.085-.3875-.142-.5955-.038-.0945-.057-.1796-.057-.2552s-.019-.1607-.056-.2552c-.038-.1513-.057-.3025-.057-.4537 0-.1702-.019-.3309-.057-.4821-.019-.0945-.028-.1796-.028-.2552 0-.0757 0-.1607 0-.2553-.038-.1134-.057-.2741-.057-.482.019-.208.047-.3687.085-.4821v-.1985c.019-.0945.019-.1891 0-.2836 0-.1134.019-.2174.057-.3119.019-.0946.028-.1796.028-.2553 0-.0945.019-.189.057-.2835.076-.2458.142-.4821.198-.709.057-.2457.133-.4821.227-.7089.341-.7751.747-1.4179 1.22-1.9283.472-.5294 1.049-1.0115 1.73-1.4463.189-.0945.387-.1796.595-.2552s.416-.1607.624-.2552c.246-.0946.501-.1607.766-.1985.264-.0378.538-.0946.822-.1702.151-.0189.293-.0283.425-.0283.133 0 .265-.0095.397-.0284 1.097-.0189 2.042.0945 2.836.3403.813.2458 1.531.5861 2.155 1.0209.208.1512.416.3214.624.5104.227.1702.416.3592.567.5672.152.189.284.3781.397.5671.133.1891.265.3876.397.5955.133.208.237.4349.312.6806.076.2269.161.4727.256.7373.056.1513.103.312.141.4821.038.1702.076.3403.114.5104.019.0757.028.1513.028.2269s.01.1512.028.2269c.038.0945.048.1985.029.3119s-.01.2174.028.3119zm-3.97 1.0209c.019-.0945.028-.2268.028-.397 0-.189-.009-.3308-.028-.4254v-.2268c-.038-.0945-.057-.1985-.057-.312 0-.1134-.009-.2174-.028-.3119 0-.0756-.009-.1323-.028-.1701-.038-.1513-.076-.3025-.114-.4538-.019-.1701-.056-.3308-.113-.482-.208-.4916-.454-.9075-.738-1.2478-.283-.3592-.661-.6428-1.134-.8507-.113-.0378-.227-.0662-.34-.0851-.114-.0378-.236-.0756-.369-.1134-.151-.0378-.312-.0473-.482-.0284-.17 0-.34 0-.51 0-.057.0378-.123.0567-.199.0567-.075-.0189-.142-.0189-.198 0-.133.0378-.265.0757-.397.1135-.114.0189-.218.0567-.312.1134-.473.208-.86.5104-1.163.9074-.283.3782-.51.8224-.68 1.3329-.057.189-.104.3875-.142.5955-.019.2079-.048.4159-.085.6238-.019.0946-.029.1891-.029.2836v.2836c-.038.1323-.056.3308-.056.5955.018.2647.047.4632.085.5955v.2552c.037.1513.066.3025.085.4538.019.1323.047.2741.085.4253.189.5672.387 1.0304.595 1.3896.227.3403.577.6522 1.05.9358.132.0945.274.1701.425.2268.17.0567.34.104.51.1418.076.0189.142.0284.199.0284.057-.0189.123-.0189.198 0 .076.0189.152.0378.227.0567.095 0 .18-.0095.255-.0284h.227c.152-.0378.303-.0661.454-.085s.293-.0568.425-.1135c.492-.189.889-.4442 1.191-.7656.303-.3214.558-.7184.766-1.1911.076-.189.132-.3781.17-.5671.038-.1891.085-.3876.142-.5955.019-.0756.028-.1418.028-.1985 0-.0756.01-.1513.029-.2269 0-.0945 0-.1796 0-.2552 0-.0945.009-.1891.028-.2836z" fill="#404542"/><path d="m278.773 24.7708c.132.0945.199.2552.199.4821.019.2079.028.4253.028.6522v12.1088c0 .1512-.009.3024-.028.4537v.4254c-.019.1512-.038.2835-.057.397 0 .1323-.01.2741-.028.4253-.076.2647-.142.5105-.199.7373-.038.2458-.104.4727-.198.6806-.322.7184-.738 1.3139-1.248 1.7866-.492.4726-1.097.8601-1.815 1.1626-.208.0945-.416.1702-.624.2269s-.425.1134-.652.1701c-.208.0567-.416.0946-.624.1135s-.416.0472-.624.085c-.076 0-.151 0-.227 0-.075.0189-.16.0284-.255.0284-.076.0189-.161.0189-.255 0-.095 0-.189.0094-.284.0283-.094.019-.217.0284-.368.0284-.152 0-.275-.0094-.369-.0284-.095 0-.18 0-.255 0-.076 0-.152-.0094-.227-.0283-.151-.0378-.312-.0567-.482-.0567-.151 0-.293-.0189-.426-.0567-.037-.0189-.085-.0284-.141-.0284-.057 0-.104-.0095-.142-.0284-.189-.0378-.378-.085-.567-.1417-.17-.0379-.341-.0946-.511-.1702-.718-.3025-1.361-.69-1.928-1.1627-.567-.4537-.983-1.0681-1.248-1.8432-.038-.0567-.057-.1134-.057-.1702 0-.0567-.009-.1039-.028-.1417-.057-.2458-.038-.4349.057-.5672.113-.1134.264-.1891.454-.2269.189-.0378.397-.0567.623-.0567.246.0189.473.0284.681.0284h.964.227c.076.0189.161.0283.255.0283.303.0757.492.1702.567.2836.076.1324.189.3025.341.5105.056.0756.141.1701.255.2835.019.0378.038.0662.057.0851.018.0189.037.0473.056.0851.152.1134.312.2174.482.3119.171.0945.36.1796.568.2552.132.0378.264.0567.397.0567.132.019.274.0473.425.0851h.312c.132.0378.302.0378.51 0 .208-.0189.369-.0472.482-.0851.095-.0378.171-.0567.227-.0567.076 0 .151-.0189.227-.0567.397-.1701.728-.397.993-.6806.264-.2835.482-.6144.652-.9925.038-.1134.066-.2269.085-.3403s.047-.2363.085-.3686c.038-.1702.057-.3498.057-.5388.019-.208.028-.4159.028-.6239 0-.0756 0-.1512 0-.2269.019-.0756.019-.1418 0-.1985-.038-.0945-.057-.1796-.057-.2552.019-.0756.01-.1512-.028-.2268-.019-.0379-.047-.0662-.085-.0851-.019-.0189-.047-.0473-.085-.0851-.17-.0189-.312.0189-.426.1134-.094.0946-.189.1796-.283.2553-.17.1323-.34.2552-.511.3686-.17.1134-.359.2174-.567.3119-.208.0946-.416.1702-.624.2269s-.425.1134-.652.1702c-.113.0189-.227.0378-.34.0567-.095 0-.189.0094-.284.0283-.094.0189-.245.0284-.453.0284s-.36-.0095-.454-.0284h-.227c-.057-.0189-.123-.0283-.198-.0283-.057 0-.123-.0095-.199-.0284-.265-.0567-.52-.104-.766-.1418-.245-.0567-.472-.1323-.68-.2268-.813-.3214-1.475-.7657-1.985-1.3329-.492-.586-.908-1.2855-1.248-2.0984-.095-.208-.161-.4254-.199-.6523-.037-.2268-.094-.4537-.17-.6805 0-.0946-.009-.1702-.028-.2269-.038-.1512-.057-.3119-.057-.4821 0-.189-.019-.3592-.056-.5104-.019-.0946-.029-.1796-.029-.2552 0-.0946 0-.1891 0-.2836-.019-.0945-.028-.208-.028-.3403 0-.1513.009-.2741.028-.3687v-.2835c.019-.0757.019-.1513 0-.2269 0-.0756.019-.1512.057-.2269.038-.189.066-.3686.085-.5388.019-.189.047-.3781.085-.5671.113-.3781.227-.7373.34-1.0776.133-.3403.293-.6617.482-.9642.095-.189.199-.3592.312-.5104.133-.1702.265-.3403.397-.5105.057-.0945.133-.189.227-.2835.114-.0946.218-.1796.312-.2553l.17-.1701c.095-.0756.189-.1418.284-.1985.094-.0756.189-.1418.283-.1985.246-.1512.501-.2836.766-.397s.558-.2174.879-.3119c.151-.0568.303-.0851.454-.0851.17-.0189.331-.0473.482-.0851.076-.0189.18-.0189.312 0s.217.0095.255-.0284c.605-.0189 1.144.0379 1.617.1702.491.1323.926.3214 1.304.5671.057.0379.113.0851.17.1418.057.0378.123.0851.199.1418.113.0945.217.1891.312.2836.094.0945.208.1796.34.2552.038.0189.085.0378.142.0567.075.0189.132.0095.17-.0283.094-.0378.151-.104.17-.1985.019-.0946.047-.1891.085-.2836s.066-.1891.085-.2836c.038-.1134.095-.2079.17-.2836.114-.0756.246-.1134.397-.1134.17-.0189.341-.0283.511-.0283h1.446c.208 0 .388.0094.539.0283.17 0 .312.0473.425.1418zm-3.885 8.7625c.076-.1701.142-.3875.199-.6522.056-.2647.094-.5388.113-.8224.019-.3024.019-.5955 0-.8791 0-.2835-.028-.5387-.085-.7656-.038-.0756-.057-.1323-.057-.1702.019-.0567.019-.1228 0-.1985-.038-.1323-.075-.2646-.113-.397-.038-.1323-.085-.2552-.142-.3686-.265-.6617-.643-1.1721-1.134-1.5313-.492-.3592-1.21-.5388-2.155-.5388-.038.0378-.095.0567-.171.0567-.056-.0189-.113-.0189-.17 0-.132.0378-.255.0756-.368.1134-.114.0189-.227.0473-.341.0851-.491.2079-.869.5199-1.134.9358s-.482.8791-.652 1.3895c-.038.0945-.057.1702-.057.2269s-.009.1323-.028.2268c-.057.208-.095.5105-.114.9075s0 .7184.057.9642v.2835c.038.1513.066.3025.085.4538.019.1323.047.2741.085.4253.17.4916.378.9264.624 1.3045.246.3592.586.6522 1.021.8791.189.0945.454.189.794.2835.132 0 .236.0095.312.0284.038 0 .094.0095.17.0284.076 0 .132-.0095.17-.0284h.284c.17-.0378.331-.0662.482-.0851s.302-.0661.454-.1418c.472-.189.85-.4537 1.134-.794.302-.3403.548-.7467.737-1.2194z" fill="#404542"/></svg>