<svg fill="none" viewBox="0 0 20 18" xmlns="http://www.w3.org/2000/svg"><path d="m18.0078 3.85714h-14.8828c-.35156 0-.625-.28125-.625-.64285 0-.32143.27344-.64286.625-.64286h15c.3125 0 .625-.28125.625-.64286 0-1.044641-.8594-1.92857-1.875-1.92857h-14.375c-1.40625 0-2.5 1.16518-2.5 2.57143v12.85717c0 1.4464 1.09375 2.5714 2.5 2.5714h15.5078c1.0938 0 1.9922-.8438 1.9922-1.9286v-10.28569c0-1.04464-.8984-1.92857-1.9922-1.92857zm-1.7578 8.35716c-.7031 0-1.25-.5625-1.25-1.2857 0-.6831.5469-1.28574 1.25-1.28574.6641 0 1.25.60264 1.25 1.28574 0 .7232-.5859 1.2857-1.25 1.2857z" fill="#468d73"/></svg>