<svg enable-background="new 0 0 24.0000019 18.6569004" viewBox="0 0 24.0000019 18.6569004" xmlns="http://www.w3.org/2000/svg"><path d="m13.547102 5.6553903c0-.6829801-.5872002-.7662702-1.1410999-.7662702l-1.6282997-.0124898v2.8859901h.6829987v-1.04528h.7496014c.7663002 0 .603899.4289398.6163998 1.04528h.6912994v-.5622c0-.3831401-.0625-.62884-.4580994-.7662702.3080996-.1249399.4913997-.4456.4871997-.7787599zm-1.2243004.4705901h-.8621006v-.6371699h.8745003c.2124004 0 .4456005.0416398.4456005.3081698 0 .27486-.2207012.3290001-.4580002.3290001zm-.6955013 3.7272205h-2.1947098l-.8745499.9494991-.8537197-.9494991h-2.7693901l-.0041599 2.8859997h2.7235799l.8870292-.9577999.8495598.9577999h1.3409615l.0042-.9703007c.7870998 0 2.0531006.1914997 2.0531006-.9703999-.0000002-.7203998-.5123007-.9452991-1.1619016-.9452991zm-4.3227697 2.2779999h-1.6907902v-.5747013h1.5117197v-.5872002h-1.5117197v-.5205993h1.7365999l.745441.8412991zm2.7402692.3414993-1.0536499-1.1702995 1.0536499-1.1409988zm1.5741005-1.2910003h-.8828011v-.7329998h.8952999c.2333012 0 .4248009.0958004.4248009.3498001 0 .2665996-.1914997.3831997-.4372997.3831997zm-1.3159008-5.6928897v-.6080199h-2.3113294v2.8859997h2.3113294v-.59552h-1.6200199v-.5747099h1.5742207v-.5871901h-1.5742207v-.5205598zm13.6928005 3.8146796h-.0083008zm-8.1041012 1.3285103c0-.6830101-.5872002-.7787991-1.1285992-.7787991h-1.6408005l-.0041008 2.8859997h.6913013l.0040989-1.0536003h.7329998c.4581013 0 .6163006.0832996.6163006.5746994l-.0041008.4789009h.6913013l.0040989-.5747013c0-.3705997-.0748997-.6287994-.4580994-.7663002.3206999-.1290989.4914991-.4496994.4955999-.7661991zm-1.2159996.4664001h-.8620987v-.6497001h.8745995c.2124004 0 .4456005.0417004.4456005.3082008 0 .2873001-.2249012.3414993-.4581013.3414993zm-7.1962595-3.3316092v-2.8859997h-1.1494002l-.8204098 1.9573202-.9036998-1.9573202h-1.1285701v2.7360802l-1.1702299-2.7360802h-1.0203l-1.236856 2.8859997h.745445l.266531-.6371698h1.4367501l.26653.6371698h1.4076002v-2.2571602l.9994802 2.2571602h.6080098l.9994798-2.2571602v2.2571602zm-6.1717901-1.2368603.4664299-1.1493998.47891 1.1493998zm19.8813496 6.6173701v-.1873989c-.4498005.2332001-.1623993.1873989-6.5258007.1873989 0-1.0494003.0042-.9953003 0-1.0494003-.0708008-.0042-.1333008-.0042-.3915005-.0042 0 .7454014-.0041008.2832012-.0041008 1.0536003h-1.6491985c0-.5038986.0042-.6371002.0042-1.2159996-.4165001.2499008-.949501.2665005-1.4284.2581997 0 .6121998-.0042.3456001-.0042.9577999h-2.0364304c-.2123909-.2374001-.1124401-.1290989-.6413403-.7245998-.1332607.1457996-.5330505.5789013-.6704803.7245998h-3.4148902v-3.8438091h3.4607c.20822.2332096.1166005.1290989.6455007.7163086.1332588-.1457787.5080605-.5580597.65382-.7163105h2.4154205c.4081001 0 .7495995.0791206 1.0119991.2332096v-.2332096c2.261301 0 2.6777-.0583096 3.1525002.2123909v-.2123909h3.2566013v.2165508c.4748001-.2873497.8162994-.2165508 2.7028008-.2165508v.2082195c.4288998-.2456989.6912994-.2165489 2.261301-.2082195v-7.3045297c0-1.103593-.895399-1.99896-1.9990005-1.99896h-19.9895406c-1.103593 0-1.99896.895367-1.99896 1.99896v4.5726199c.391463-.9120297.820406-1.9156699.961999-2.2446699h1.653301c.17908.42062.0666399.1540899.37481.8787098v-.8787098h1.9156699c.12077.2582002.4622598.9994798.5788598 1.2493501.24154-.56637.42062-.9953098.5247302-1.2493501h4.2894297c0-.0041599.4789009 0 .4831009 0 1.8199005.0083299 2.2321987-.0333099 2.6819.2207198v-.2207198h1.6616993v.3873c.3164997-.2540302.7454014-.3873 1.2785015-.3873h1.1494007c0 .0208302.0790997.0124998.0956993.0124998h1.3493004c.1749001.4081202.1082993.2498698.3665009.8578801v-.8578801h1.8031998c.2040997.3331599-.0415993-.0749602.4664993.7662601v-.7662601h1.6616001v3.8313303h-1.732399c-.2248993-.3748007-.0583-.09161-.5496998-.9120207v.9120207h-2.1989002c-.2665005-.6163406-.0042-.0124912-.2749004-.6371603h-.7912006c-.1749001.41645-.0916004.2165499-.2665005.6371603h-1.1161003c-.5123005 0-.9286995-.1249313-1.2369003-.3706403v.3706403h-2.7693996c-.0125008-.5788603-.0041008-1.0327907-.0041008-1.0327907-.0749989-.0124898-.1415997-.0083299-.4081993-.0083299v1.04529h-5.6428506v-.4747495c-.1041098.2332101-.1124401.2456999-.21239.4747496h-1.2285299c-.1665802-.3706393-.12077-.2665296-.2123899-.4747496v.4747496h-2.2030201c-.1749001-.4206095-.09161-.2207193-.26652-.6371694h-.79959c-.1749099.41645-.09162.2165599-.26652.6371694h-1.107761v8.4830914c0 1.1035995.895367 1.9988995 1.998961 1.9988995h19.9937115c1.1035995 0 1.9990005-.8952999 1.9990005-1.9988995v-3.7647c-.5289007.3456001-1.3617998.2539997-2.8110033.2539997zm1.5116997-2.6861h1.2535v-.6079998h-1.3701c-.5331001 0-.9911995.2749004-.9911995.8621006 0 1.3741989 1.7782993.532999 1.7782993 1.1409988 0 .2124004-.1791.2665997-.3498993.2665997h-1.3325996l-.0042.6163006h1.3327007c.3498001 0 .7329006-.0750008.9370003-.3705997v-1.074501c-.4372997-.5746994-1.6366997-.0541-1.6366997-.5621986 0-.241501.1916008-.2707006.3831978-.2707006zm-2.3738003 1.6575012h-1.3409996l-.0041008.6162987h1.3409996c.6163006 0 1.0909996-.2332001 1.0909996-.9161987 0-1.3826008-1.786499-.4664001-1.786499-1.0951996 0-.2332001.2040005-.2665005.3831005-.2665005h1.2660007v-.6080589h-1.3826008c-.532999 0-.9787006.2748604-.9787006.8620586 0 1.3743 1.7782993.5206013 1.7782993 1.1410999-.0042.2248002-.1956997.2665005-.3664989.2665005zm-1.7574005-1.67v-.595501h-2.2987995l-.0042 2.8859997h2.2987995l.0042-.595499-1.6075001-.0125008v-.5746994h1.5783005v-.5872002h-1.5741005v-.5206012zm-2.3446007-4.5018006c-.0125008.0083299-.0583.09162-.0583.3165002 0 .2498698.0375004.3206701.0457993.329.0083008.0041699.0457993.0208201.1415997.0208201l.3040009-.7038002c-.0457993 0-.0874996-.0041599-.1291008-.0041599-.2332002 0-.2915003.02915-.3039991.0416398zm.8495006-.4372701h-.0041008zm-.6746006-.6329999c-.9787006 0-1.4159012.4997401-1.4159012 1.4700599 0 .92452.4246998 1.4159303 1.3742008 1.4159303h.7996006l.2665997-.6371598h1.4284l.2747993.6371598h1.4034996v-2.1613704l1.2992992 2.1613703h.9827995v-2.8734999h-.7038002v2.0031199l-1.2117996-2.0031199h-1.0536995v2.7235799l-1.1618996-2.7235799h-1.0328007l-.9785995 2.26965h-.3082008c-.5538998 0-.6704998-.3373199-.6704998-.8287301 0-.9911499.6539001-.8329 1.3785-.8204098v-.6329999zm1.7532006.5039.4664993 1.1494002h-.9494991zm-4.2103005-.4997401v2.8859997h.7038002v-2.8859997z" fill="#468d73"/></svg>