<svg fill="none" viewBox="0 0 20 24" xmlns="http://www.w3.org/2000/svg"><path clip-rule="evenodd" d="m15.7071.292893c-.3905-.3905241-1.0237-.3905241-1.4142 0-.3905.390524-.3905 1.023687 0 1.414217l2.2929 2.29289h-11.5858c-1.32608 0-2.59785.52678-3.53553 1.46447-.937686.93768-1.46446998 2.20945-1.46446998 3.53553v2c0 .5523.44771498 1 .99999998 1 .55228 0 1-.4477 1-1v-2c0-.79565.31607-1.55871.87868-2.12132s1.32567-.87868 2.12132-.87868h11.5858l-2.2929 2.29289c-.3905.39053-.3905 1.02369 0 1.41422.3905.39049 1.0237.39049 1.4142 0l4-4c.1831-.18306.2803-.41943.2918-.65914.0007-.01598.0011-.03197.0011-.04797zm0 0 4 3.999997c.1929.19292.2905.44504.2929.69788zm-9.99999 14.000007c.39052.3905.39052 1.0237 0 1.4142l-2.2929 2.2929h11.58579c.7956 0 1.5587-.3161 2.1213-.8787s.8787-1.3257.8787-2.1213v-2c0-.5523.4477-1 1-1s1 .4477 1 1v2c0 1.3261-.5268 2.5979-1.4645 3.5355-.9376.9377-2.2094 1.4645-3.5355 1.4645h-11.58579l2.2929 2.2929c.39052.3905.39052 1.0237 0 1.4142-.39053.3905-1.02369.3905-1.41422 0l-3.999997-4c-.29464752-.2946-.3669857-.7274-.2170143-1.0899" fill="#468d73" fill-rule="evenodd"/></svg>