<svg fill="none" viewBox="0 0 22 22" xmlns="http://www.w3.org/2000/svg"><path clip-rule="evenodd" d="m8.72571 2.28983c-3.5569.92614-6.2577 3.97341-6.67078 7.71017h3.99516c.22421-2.76319 1.14901-5.41558 2.67562-7.71017zm4.54859 0c1.5266 2.29459 2.4514 4.94698 2.6756 7.71017h3.9952c-.4131-3.73676-3.1139-6.78403-6.6708-7.71017zm.6681 7.71017c-.2512-2.71317-1.2727-5.29807-2.9424-7.4492-1.66968 2.15113-2.69121 4.73603-2.94241 7.4492zm-5.88481 2h5.88481c-.2512 2.7132-1.2727 5.2981-2.9424 7.4492-1.66968-2.1511-2.69121-4.736-2.94241-7.4492zm-2.0075 0h-3.99516c.41308 3.7368 3.11388 6.784 6.67078 7.7102-1.52661-2.2946-2.45141-4.947-2.67562-7.7102zm7.22421 7.7102c1.5266-2.2946 2.4514-4.947 2.6756-7.7102h3.9952c-.4131 3.7368-3.1139 6.784-6.6708 7.7102zm-2.2743 2.2898c6.0751 0 11-4.9249 11-11 0-6.07513-4.9249-11-11-11-6.07513 0-11 4.92487-11 11 0 6.0751 4.92487 11 11 11z" fill="#468d73" fill-rule="evenodd"/></svg>