<svg enable-background="new 0 0 24 18.6667004" viewBox="0 0 24 18.6667004" xmlns="http://www.w3.org/2000/svg"><path clip-rule="evenodd" d="m24 16.6667004v-14.6667004c0-1.104167-.8957996-2-2-2h-20c-1.104167 0-2 .895833-2 2v14.6667004c0 1.1040993.895833 2 2 2h20c1.1042004 0 2-.8959008 2-2zm-18.9909496-10.3042803c.3625298-.1212602.7490602-.1869402 1.152-.1869402 1.7583199 0 3.2248397 1.2492599 3.5608497 2.9077902l-1.46527.2993603c-.1983101-.9764205-1.0610501-1.71031-2.0955803-1.71031-.2374701 0-.4648399.03789-.6783099.1086302zm-.9861899 3.4471502c0-.6366301.27916-1.2088404.7212601-1.60042l-.99158-1.12042c-.75158.6656799-1.2265201 1.6383204-1.2265201 2.72084 0 1.0838299.4749401 2.0564299 1.2277899 2.7221298l.9903102-1.1203995c-.4421001-.3915996-.7212601-.9638004-.7212601-1.6017303zm1.4598799 2.02773c.2122102.0719995.4408398.1099005.6783099.1099005 1.0332699 0 1.8960004-.7326002 2.0955796-1.7089996l1.46527.3018999c-.3372698 1.6560001-1.8037901 2.9040003-3.5608501 2.9040003-.4029398 0-.79073-.0656996-1.1532602-.1870003zm6.1887598-1.533c-.0506001-.5217199.1932001-.9688797.6682005-1.1722498.5468998-.2349501.9966002-.0997896 1.3439999.3056898zm2.3418999-1.8884697c-.6405001-.3802099-1.3807001-.4370499-2.0502005-.1490497-.5305004.2286301-.9434996.6783104-1.1583004 1.2656803-.1957998.5355396-.1857004 1.0939398.0467997 1.6332397.0390997.0909996.1048002.2159996.1527996.2931004l4.0017004-1.7444496c-.0124998-.0293999-.0247002-.0609798-.0372-.0933399v-.0000296-.00002l-.0001001-.00002c-.0127001-.0329504-.0256996-.06672-.0397997-.0998497-.2196999-.5103198-.5077-.8715802-.915699-1.1052619zm-.1212998 2.5735703.0403996.0277996.0008001-.0001002.0003004-.0001001.0001001-.0002003.0001001-.0009003.7781.5204c-.2210999.3449001-.5431995.6152-.9549999.7946005-.5684004.2462997-1.1443996.2575998-1.7089996.0240002-.1415005-.0593996-.2791996-.1351995-.4041996-.2223997l.5089998-.7642002h.0012999l.0264997-.0417004c.3006001.2628002.7174997.3133001 1.1672001.1188002.2362004-.1035995.4231005-.2615003.5443993-.4559993zm2.5110998-3.8474703h-.9422998v4.25807c0 .2299004.0593996.4017.1401997.5268002.0846996.1211996.1957998.2299004.3587999.3006001l.7301006.3031998.3738995-.8740999-.6606998-.2678003v-4.2467699zm1.4459992 1.5026598.677.7553596c-.2525997.2210598-.4118004.5456896-.4118004.90695 0 .3599997.1578999.6834002.4092999.9056997l-.6758003.7553997c-.4584999-.4068003-.7490005-1.0017004-.7478008-1.6624002 0-.6618595.2905998-1.2542801.7491016-1.6610088zm1.4678001 2.8672104c-.1327-.0012999-.2614994-.0227003-.3815002-.0630999l-.3234005.9624996c.2210999.0745001.4585991.1148996.7035999.1148996 1.0737.0012999 1.9692993-.7603998 2.1763992-1.7721996l-.9941006-.2020998c-.1137008.5481997-.5986995.9600001-1.1809978.9600001zm1.1821995-1.4428006c-.1112003-.5507002-.5974998-.9650097-1.1798-.96628-.1327 0-.2614994.0227404-.3827991.0619001l-.3195-.9625301c.2210007-.0732603.4571991-.1136799.7035007-.1124201 1.0737 0 1.9680004.7642097 2.1727009 1.776z" fill="#468d73" fill-rule="evenodd"/></svg>