<svg fill="none" viewBox="0 0 16 14" xmlns="http://www.w3.org/2000/svg"><path d="m14.5 7h-2.5v-2c0-1.09375.875-2 2-2h.25c.4062 0 .75-.3125.75-.75v-1.5c0-.40625-.3438-.75-.75-.75h-.25c-2.7812 0-5 2.25-5 5v7.5c0 .8438.65625 1.5 1.5 1.5h4c.8125 0 1.5-.6562 1.5-1.5v-4c0-.8125-.6875-1.5-1.5-1.5zm-9 0h-2.5v-2c0-1.09375.875-2 2-2h.25c.40625 0 .75-.3125.75-.75v-1.5c0-.40625-.34375-.75-.75-.75h-.25c-2.78125 0-5 2.25-5 5v7.5c0 .8438.65625 1.5 1.5 1.5h4c.8125 0 1.5-.6562 1.5-1.5v-4c0-.8125-.6875-1.5-1.5-1.5z" fill="#3ddb93"/></svg>