<svg fill="none" viewBox="0 0 22 22" xmlns="http://www.w3.org/2000/svg"><path clip-rule="evenodd" d="m9.08619.593862c.1605-.361128.51862-.593862.91381-.593862 1.0609 0 2.0783.421427 2.8284 1.17157.7502.75015 1.1716 1.76756 1.1716 2.82843v3h4.6549c.4327-.004.8613.08567 1.2561.26289.3968.17807.7501.44028 1.0355.76845.2853.32817.4959.71446.6172 1.1321.1212.41765.1502.85666.085 1.28666l-1.38 8.9998c-.1086.7151-.4721 1.3676-1.0231 1.836-.5498.4673-1.2495.7208-1.9708.7141h-14.2748c-.79565 0-1.55871-.3161-2.12132-.8787s-.87868-1.3256-.87868-2.1213v-7c0-.7956.31607-1.5587.87868-2.12132.56261-.56261 1.32567-.87868 2.12132-.87868h2.35013zm-4.08619 10.406138h-2c-.26522 0-.51957.1054-.70711.2929-.18753.1875-.29289.4419-.29289.7071v7c0 .2652.10536.5196.29289.7071.18754.1875.44189.2929.70711.2929h2zm2 9h10.2913c.2412.0027.4752-.0817.659-.2379.1837-.1562.3048-.3736.341-.612l1.38-9.0002c0-.0001 0 .0002 0 0 .0217-.1432.0121-.28975-.0283-.42884-.0404-.13921-.1106-.26798-.2057-.37737-.0952-.10939-.2129-.19679-.3452-.25615-.1322-.05935-.2758-.08925-.4208-.0876l-.0113.00012-5.66-.00006c-.5523 0-1-.44772-1-1v-4c0-.53043-.2107-1.03914-.5858-1.41421-.2278-.22785-.505-.39504-.8064-.49119l-3.6078 8.1176z" fill="#468d73" fill-rule="evenodd"/></svg>