<svg enable-background="new 0 0 11.015624 11.015624" viewBox="0 0 11.015624 11.015624" xmlns="http://www.w3.org/2000/svg"><path d="m7.5859399 5.4921894 3.1249595-3.125c.4062996-.3749999.4062996-.9999999 0-1.3750019l-.6875-.6875c-.3749599-.40625-.9999599-.40625-1.3749599 0l-3.125 3.1250019-3.15625-3.1250019c-.3749999-.40625-.9999999-.40625-1.3750019 0l-.6875.6875c-.40625.375002-.40625 1.000002 0 1.3750018l3.1250019 3.125-3.1250019 3.15625c-.40625.375-.40625 1 0 1.3749599l.6875.6875c.375002.4062996 1.000002.4062996 1.3750018 0l3.15625-3.1249604 3.125 3.1249604c.375.4062996 1 .4062996 1.3749599 0l.6875-.6875c.4062996-.3749599.4062996-.9999599 0-1.3749599z" fill="#468d73"/></svg>