<svg fill="none" viewBox="0 0 22 22" xmlns="http://www.w3.org/2000/svg"><path clip-rule="evenodd" d="m19.5641 2.31561c-.2436-.20908-.5555-.32145-.8764-.31577l-.0177.00016h-1.67v9h1.67l.0177.0002c.3209.0056.6328-.1067.8764-.3158.2289-.1965.3825-.4656.4359-.76127v-6.84627c-.0534-.29572-.207-.56476-.4359-.76125zm-4.5641 9.47219-3.6079 8.1176c-.3013-.0962-.5785-.2633-.8063-.4912-.3751-.3751-.58583-.8838-.58583-1.4142v-4c0-.5523-.44772-1-1-1h-5.66l-.01132.0001c-.14496.0016-.28854-.0283-.42079-.0876-.13225-.0594-.25002-.1468-.34514-.2562s-.16533-.2382-.20574-.3774c-.04037-.139-.05006-.2851-.02842-.4283-.00003.0002.00003-.0002 0 0l1.38011-9.00067c.03616-.23845.15728-.4558.34104-.612.18377-.1562.41779-.24072.65895-.238l10.29134.00007zm3.6619-11.78780457c.8076-.01193343 1.5918.27182657 2.2048.79802157.6155.528283 1.0155 1.264163 1.1242 2.067933.0061.04443.0091.08921.0091.13405v7c0 .0448-.003.0896-.0091.134-.1087.8038-.5087 1.5397-1.1242 2.068-.613.5262-1.3972.8099-2.2048.798h-2.0121l-3.736 8.4061c-.1605.3612-.5186.5939-.9138.5939-1.0609 0-2.07831-.4214-2.82846-1.1716-.75014-.7501-1.17157-1.7675-1.17157-2.8284v-3h-4.65489c-.43275.004-.86127-.0857-1.25614-.2629-.39677-.1781-.75007-.4403-1.03543-.7684-.285371-.3282-.495975-.7145-.617226-1.1321-.121252-.4177-.150252-.8567-.084991-1.2867l1.379977-8.99984c.00005-.0003-.00004.0003 0 0 .10866-.71501.47208-1.36761 1.02315-1.83601.54971-.467255 1.24934-.72071402 1.97063-.71405457z" fill="#468d73" fill-rule="evenodd"/></svg>