<svg enable-background="new 0 0 23.2166939 19.4715443" viewBox="0 0 23.2166939 19.4715443" xmlns="http://www.w3.org/2000/svg"><g fill="#468d73"><path d="m1.5024574 18.382246c0-.3255005.2638301-.5893002.5892899-.5893002h18.4642906c.3253994 0 .5893002.2637997.5893002.5893002 0 .3253994-.2639008.5893002-.5893002.5893002h-18.4642911c-.3254598 0-.5892899-.2639008-.5892894-.5893002z"/><path clip-rule="evenodd" d="m17.5409374 2.1865761c1.1755009-.6588399 2.8945999-1.22183 4.4074993-.1619899.6592999.4616899.7810993.9937701.7672997 1.35868-.0266991.7035801-.5657005 1.3403299-1.647501 1.9467499l-12.5261498 7.0205298c-.8177409.4583998-2.1255307.8283997-3.3317804.9429998-.26126.0248003-.5046802.0370998-.73002.0370998-1.0988801.0001001-1.76881-.2943001-1.99547-.8785-.1735401-.4473.0176201-.8732004.22856-1.1757002l-1.99664-2.98005 2.2093501-1.2382202 3.2998102 1.50945 3.1716504-1.8108902-4.9766804-6.0641499 3.5891004-.18534 6.0267696 3.6433401zm-9.3816604 9.1773699 12.5260601-7.0206199c1.0981998-.6154099 1.1254005-1.0058 1.1254997-1.0097198.0021992-.0569301-.0809002-.2021-.3185005-.3685-.9430008-.66047-2.1436996-.5906401-3.5688.20804l-3.9019003 2.18686-6.208261-3.75303-1.31427.0678799 4.4381299 5.4079099-4.6722107 2.6676802-3.30334-1.51122-.8145299.4565802 1.7982397 2.6839399-.32534.3442001c-.13871.1466999-.2138901.2508001-.2541499.3170004.19555.1262999.7821901.2749004 1.8794.1564999 1.0734701-.1157999 2.2172799-.4429998 2.9139729-.8335008z" fill-rule="evenodd"/><path d="m21.9484386 2.024586-.2868996.4095199.0000992.0000401zm-4.4074993.1619899.2444.4361701zm5.174799 1.1966901-.4997005-.01898zm-1.6474991 1.9467501.2444.4361701v-.00001zm-12.5261497 7.0205298.2444601.4362001zm-3.3317805.9429998-.0472598-.4977999h-.00003zm-.73002.0370999v-.5h-.00003zm-1.9954701-.8785-.46615.1808996h.00001zm.22856-1.1757002.41012.2861004.1955199-.2804003-.1902499-.2840004zm-1.9966398-2.9800501-.2444491-.4361696-.47229.2646904.301353.4497795zm2.2093499-1.2382202.2079899-.45469-.23092-.1056299-.2215099.1241498zm3.2998102 1.5094499-.2079902.45469.2332101.1066799.2227001-.1271601zm3.1716504-1.8108902.24792.4342098.5142698-.2936301-.3757-.4577799zm-4.9766802-6.0641498-.0257903-.499334-.98891.051067.6281899.7654669zm3.5891003-.18534.2586699-.427889-.1312704-.079356-.1531806.00791zm6.0267696 3.6433402-.2587003.4278898.2491999.15062.2538996-.1423402zm6.6485997.1927399-.2444-.4361901-.0000992.00002zm-12.5260601 7.0206199-.2444606-.4362001h-.0000095zm13.6515598-8.0303402-.4997005-.0190599-.0002003.00739zm-.3185005-.3685-.2868004.40955v.00001zm-3.5688.20804.2444992.4361701zm-3.9019003 2.1868601-.2586002.4278898.2490997.15061.2539997-.1423402zm-6.208261-3.7530301.2586703-.4278901-.1312709-.07935-.1531897.00791zm-1.31427.06788-.0257802-.4993401-.9889102.05108.62819.76545zm4.4381299 5.4079098.2479.4342098.5142002-.2936301-.3755999-.4577699zm-4.6722107 2.6676798-.2080102.4547005.2332101.1065998.2227201-.1271zm-3.30334-1.51122.208-.4546804-.2309501-.10565-.22154.1241798zm-.8145299.4565802-.2444797-.4361496-.47224.2647104.3013401.4497499zm1.7982397 2.6839399.3633599.3435001.27424-.2902002-.2222098-.3316002zm-.32534.3442002-.3633499-.3435002h-.00001zm-.2541499.3170004-.4272699-.2596998-.2527399.4159002.40885.2638998zm1.8794.1564998.0536399.4970999zm-3.1535599 6.0954991h18.4642925v-1h-18.4642918zm18.4642918.1786003h-18.4642911v1h18.4642906v-1zm-18.4642911 0c-.04932 0-.0892899-.0400009-.0892899-.0893002h-.9999999c0 .6016006.48769 1.0893002 1.0892898 1.0893002zm18.5535913-.0893002c0 .0492992-.0400009.0893002-.0893002.0893002v1c.6016006 0 1.0893002-.4876995 1.0893002-1.0893002zm-.0893002-.0893001c.0492992 0 .0893002.0400009.0893002.0893002h1c0-.6016006-.4876995-1.0893002-1.0893002-1.0893002zm-18.4642911-1c-.6015998 0-1.0892899.4876995-1.0892899 1.0893002h.9999998c0-.0492992.0399699-.0893002.0892899-.0893002zm20.1435914-15.6778698c-1.7635994-1.235413-3.7259998-.5444601-4.9389.13534l.4888992.87233c1.1380997-.6378899 2.6138992-1.0729198 3.8761997-.1886401zm.9799996 1.7871599c.0196991-.51809-.1686993-1.21896-.9801006-1.78721l-.5736008.8191199c.5070992.35514.5625.71842.5543995.93014zm-1.9027005 2.3639402c1.118-.6266298 1.8656006-1.3856401 1.9027004-2.36394l-.9993-.03795c-.0161991.42888-.3465004.9433601-1.3922997 1.5295799zm-12.5260896 7.0205698 12.5260897-7.0205598-.4888992-.8723302-12.5261098 7.0205899zm-3.5289808 1.0045004c1.2561002-.1191998 2.6355104-.5037003 3.5289807-1.0045004l-.4889202-.8723001c-.7420106.4159002-1.9781804.7714996-3.1345801.8813zm-.7772798.0394001c.2433701 0 .5027299-.0132999.7773099-.0394001l-.0945802-.9954996c-.2479401.0235996-.47542.0348997-.6827302.0348997zm-2.4616101-1.1976004c.34794.8966999 1.3259099 1.1976995 2.4616301 1.1976004l-.0000501-1c-1.0620399.0001001-1.4239202-.2877998-1.5293-.5593996zm.28458-1.6426c-.23966.3437004-.5508298.9562998-.28459 1.6426001l.9322999-.3617001c-.0808301-.2083998-.0097001-.4475002.1725299-.7088003zm-2.0019058-2.4157505 1.9966458 2.9800501.83077-.5565996-1.9966398-2.9800606zm2.3802959-1.9526901-2.2093589 1.2382202.488899.8723402 2.2093501-1.2382202zm3.7522399 1.4909296-3.2998099-1.50945-.4159801.90938 3.2998097 1.50945zm2.7157502-1.7904101-3.1716504 1.8108902.4958301.8684197 3.1716509-1.8108902zm-5.1152806-5.3127398 4.9766908 6.0641398.7729902-.6343899-4.9766603-6.0641451zm3.94983-1.0018751-3.5891099.185341.05158.9986739 3.5891004-.1853499zm6.3111511 3.7147852-6.0267-3.6433389-.5173402.855779 6.0267406 3.6433401zm3.0011005-1.97228-3.5042 1.9640098.4889002.8723302 3.504199-1.96401zm3.1443997 2.1567397-12.5260206 7.0205899.4889207.8724003 12.5261002-7.0206599zm.8701-.5852198c.0063992-.27072.1847992-.0058999-.8700008.5851998l.4888.8723698c1.1415997-.6397099 1.3745003-1.1556602 1.3810005-1.4342198zm-.1054001.0527301c.0869999.06092.1282997.10604.1420002.1236801.0072002.00915.0023994.00511-.0060005-.01314-.0042992-.0093701-.0116005-.0267701-.0179996-.05142-.0060005-.0229599-.0144005-.0646801-.0123005-.11924l.9992008.03813c.0049-.12712-.0349998-.2304101-.0611992-.28706-.0307999-.06668-.0708008-.1280899-.1138-.1831501-.0865993-.11077-.2056999-.2214301-.3563004-.32692zm-3.0375004.2346501c1.3381004-.74997 2.3153992-.7403901 3.0375004-.2346599l.5736008-.8190901c-1.1639996-.8152299-2.5881004-.6659701-4.1000004.1814101zm-3.9019003 2.1868501 3.9019003-2.1868501-.4888992-.87234-3.9019003 2.1868603zm-6.7114305-3.7613001 6.2083302 3.7530298.5172997-.8557901-6.2082901-3.75302zm-1.02981.1393199 1.3142695-.0678699-.0515804-.99867-1.31426.06787zm4.7988405 4.5913901-4.4381203-5.4079199-.7730103.6343899 4.4381309 5.4079199zm-4.8107905 3.4190702 4.6721902-2.6676702-.4959002-.8684101-4.6721305 2.6676502zm-3.7592699-1.4907398 3.3033402 1.51124.4160099-.9094-3.30334-1.5112zm-.3620401.4380503.8145301-.4565697-.48897-.8723097-.81452.4565802zm1.9691498 1.96949-1.79825-2.6839504-.8307598.5566197 1.7982398 2.6839294zm-.3773698.9659005.3253398-.3441-.7267101-.6870003-.32534.3442001zm-.1902299.2333002c.0180302-.0297003.06989-.1059999.1902299-.2333002l-.7267199-.6869001c-.1570799.1661997-.2555699.2980003-.3180599.4007998zm1.3984799-.6002999c-.51826.0558996-.8998699.0468998-1.1627803.0143995-.1314402-.0163002-.2293601-.0379-.2976899-.0584002-.07196-.0215998-.0976701-.0377998-.09412-.0354996l-.54233.8402004c.18981.1225004.4719801.2040997.8113401.2461004.3536.0438004.81391.0499001 1.3928599-.0125999zm2.7231402-.7726001c-.6210599.3480997-1.69451.6616001-2.7231398.7726002l.1072798.9941998c1.11832-.1205997 2.3324699-.4616003 3.1047902-.8943996z"/></g></svg>