<svg enable-background="new 0 0 22.0000935 21.0200348" viewBox="0 0 22.0000935 21.0200348" xmlns="http://www.w3.org/2000/svg"><path clip-rule="evenodd" d="m11 0c.3806 0 .7283001.216072.8966999.557376l2.8576002 5.789094 6.390399.9340401c.3764992.0550399.6891994.3190498.8066006.6810598s.0191002.7592602-.2535 1.0247898l-4.6231995 4.5030394 1.0909996 6.361599c.0643997.3750992-.0898991.7542992-.3978004.9780998-.3080006.2236996-.716301.2532005-1.0531998.0760002l-5.7145996-3.0053007-5.7145195 3.0053006c-.3369198.1772003-.7452102.1476994-1.0531802-.0760002-.3079803-.2238007-.4622302-.6030007-.3978803-.9780999l1.09109-6.3615999-4.623214-4.5030394c-.2726178-.2655296-.3708906-.6627798-.2535129-1.0247898.1173779-.36201.4300579-.62602.8066179-.6810598l6.390369-.9340401 2.8575301-5.789094c.1684999-.3413039.5160999-.557376.8966999-.5573749zm0 3.2592499-2.1932602 4.4433697c-.1455402.2948499-.4267302.4993095-.75208.5468702l-4.9062197.7171097 3.54932 3.4569998c.2358799.2298002.3435402.5608997.2878799.8853998l-.83743 4.8827009 4.3863893-2.3067999c.2914-.1532001.6394997-.1532001.9308996 0l4.3863001 2.3067999-.8374004-4.8827c-.0556002-.3245001.052-.6555996.2879-.8853998l3.5493002-3.4569998-4.9062004-.7171097c-.3254004-.0475597-.6064997-.2520199-.7521-.5468702z" fill="#468d73" fill-rule="evenodd"/></svg>