<svg fill="none" viewBox="0 0 14 24" xmlns="http://www.w3.org/2000/svg"><path clip-rule="evenodd" d="m8 1c0-.552285-.44772-1-1-1s-1 .447715-1 1v3h-1.5c-1.19347 0-2.33807.47411-3.18198 1.31802-.843914.84391-1.31802 1.98851-1.31802 3.18198s.474106 2.3381 1.31802 3.182c.84391.8439 1.98851 1.318 3.18198 1.318h1.5v5h-5c-.552285 0-1 .4477-1 1s.447715 1 1 1h5v3c0 .5523.44772 1 1 1s1-.4477 1-1v-3h1.5c1.1935 0 2.3381-.4741 3.182-1.318s1.318-1.9885 1.318-3.182-.4741-2.3381-1.318-3.182-1.9885-1.318-3.182-1.318h-1.5v-5h4c.5523 0 1-.44772 1-1s-.4477-1-1-1h-4zm-2 5h-1.5c-.66304 0-1.29893.26339-1.76777.73223s-.73223 1.10473-.73223 1.76777.26339 1.29893.73223 1.7678c.46884.4688 1.10473.7322 1.76777.7322h1.5zm2 7v5h1.5c.663 0 1.2989-.2634 1.7678-.7322.4688-.4689.7322-1.1048.7322-1.7678s-.2634-1.2989-.7322-1.7678c-.4689-.4688-1.1048-.7322-1.7678-.7322z" fill="#468d73" fill-rule="evenodd"/></svg>