<svg fill="none" viewBox="0 0 18 18" xmlns="http://www.w3.org/2000/svg"><path clip-rule="evenodd" d="m3.5 2c-.82843 0-1.5.67157-1.5 1.5s.67157 1.5 1.5 1.5 1.5-.67157 1.5-1.5-.67157-1.5-1.5-1.5zm-3.5 1.5c0-1.933 1.567-3.5 3.5-3.5s3.5 1.567 3.5 3.5-1.567 3.5-3.5 3.5-3.5-1.567-3.5-3.5zm16.7071-.79289-13.99999 13.99999c-.39053.3905-1.02369.3905-1.41422 0-.390521-.3905-.390521-1.0237 0-1.4142l14.00001-14.00001c.3905-.390521 1.0237-.390521 1.4142 0 .3905.39053.3905 1.02369 0 1.41422zm-3.7071 11.79289c0-.8284.6716-1.5 1.5-1.5s1.5.6716 1.5 1.5-.6716 1.5-1.5 1.5-1.5-.6716-1.5-1.5zm1.5-3.5c-1.933 0-3.5 1.567-3.5 3.5s1.567 3.5 3.5 3.5 3.5-1.567 3.5-3.5-1.567-3.5-3.5-3.5z" fill="#468d73" fill-rule="evenodd"/></svg>