<svg fill="none" viewBox="0 0 16 14" xmlns="http://www.w3.org/2000/svg"><path d="m14.5 0h-4c-.84375 0-1.5.6875-1.5 1.5v4c0 .84375.65625 1.5 1.5 1.5h2.5v2c0 1.125-.9062 2-2 2h-.25c-.4375 0-.75.3438-.75.75v1.5c0 .4375.3125.75.75.75h.25c2.75 0 5-2.2188 5-5v-7.5c0-.8125-.6875-1.5-1.5-1.5zm-9 0h-4c-.84375 0-1.5.6875-1.5 1.5v4c0 .84375.65625 1.5 1.5 1.5h2.5v2c0 1.125-.90625 2-2 2h-.25c-.4375 0-.75.3438-.75.75v1.5c0 .4375.3125.75.75.75h.25c2.75 0 5-2.2188 5-5v-7.5c0-.8125-.6875-1.5-1.5-1.5z" fill="#3ddb93"/></svg>