<svg enable-background="new 0 0 24 18.6667004" viewBox="0 0 24 18.6667004" xmlns="http://www.w3.org/2000/svg"><path clip-rule="evenodd" d="m24 16.6667004v-14.6667004c0-1.104167-.8957996-2-2-2h-20c-1.104167 0-2 .895833-2 2v14.6667004c0 1.1040993.895833 2 2 2h20c1.1042004 0 2-.8959008 2-2zm-20.8421097-1.6492005c-.34881 0-.6315799.2827997-.6315799.6316004s.2827699.6316004.6315799.6316004h17.6842098c.3488007 0 .6315994-.2827997.6315994-.6316004s-.2828007-.6316004-.6315994-.6316004zm-.6315799-1.8947c0-.3487997.2827699-.6316004.6315799-.6316004h17.6842098c.3488007 0 .6315994.2827997.6315994.6316004s-.2828007.6316004-.6315994.6316004h-17.6842098c-.3488099 0-.6315799-.2827998-.6315799-.6316004zm14.1315895-10.7368403c-.8283997 0-1.5.6715701-1.5 1.5v.7894702c0 .8284302.6716003 1.5 1.5 1.5h3.3157997c.8283997 0 1.5-.6715698 1.5-1.5v-.78947c0-.8284299-.6716003-1.5-1.5-1.5z" fill="#468d73" fill-rule="evenodd"/></svg>