<svg enable-background="new 0 0 24 19.0909004" viewBox="0 0 24 19.0909004" xmlns="http://www.w3.org/2000/svg"><path d="m19.5874996 8.4928999s.3167 1.5852003.3875008 1.9175997h-1.3917007c.1375007-.3793001.6667003-1.8536797.6667003-1.8536797-.0083008.0127802.1375008-.3877897.2208004-.6349401zm4.4125004-6.4474504v15.0000505c0 1.1292-.8957996 2.0454006-2 2.0454006h-20c-1.104167 0-2-.9162006-2-2.0454006v-15.00005c0-1.129257.895833-2.04545 2-2.04545h20c1.1042004 0 2 .916193 2 2.0454495zm-17.6458302 10.7045505 2.6333303-6.6136398h-1.7708301l-1.6374998 4.5170403-.1791701-.9161797-.5833302-3.0426197c-.0958399-.4218703-.3916697-.5411902-.7583398-.55824h-2.6958301l-.02917.1321096c.6583399.1704503 1.2458398.4176102 1.75834.7286902l1.4916601 5.752841zm3.9333306.0085001 1.0500002-6.6221399h-1.6750002l-1.0458298 6.6221399zm5.8291988-2.1647005c.0083008-.7543097-.4417-1.3296003-1.4041996-1.8026104-.5874996-.3025503-.9457998-.5071001-.9457998-.8181801.0082998-.28125.3041-.5710201.9624996-.5710201.5458002-.0127907.9457998.1193199 1.2458.25142l.1500006.0724402.2292004-1.4318199c-.3292007-.1321001-.8542004-.28125-1.5-.28125-1.6541996 0-2.8167.90341-2.8249998 2.19034-.0124999.9502897.8332996 1.4786997 1.4665994 1.7982797.6458998.3239002.8667002.5369997.8667002.8225002-.0082998.4431-.5249996.6477003-1.0042.6477003-.6666002 0-1.0249996-.1064997-1.5707998-.3536997l-.2208004-.1064996-.2334004 1.4871998c.3916998.1831999 1.1167002.3451996 1.8667002.3536997 1.7582998.0042 2.9042006-.8864002 2.9166994-2.2585001zm5.8833008 2.1646995-1.3500004-6.6221399h-1.2957993c-.3999996 0-.7042007.1193199-.875.5497198l-2.4875002 6.0724201h1.7582999s.2875004-.8182001.3500004-.9928999h2.1499996c.0499992.2343998.2000008.9928999.2000008.9928999z" fill="#468d73"/></svg>