<svg fill="none" viewBox="0 0 16 24" xmlns="http://www.w3.org/2000/svg"><path clip-rule="evenodd" d="m2 8c0-3.31371 2.68629-6 6-6 3.3137 0 6 2.68629 6 6 0 2.0815-1.0599 3.9154-2.6695 4.9915-.057.0295-.1107.0643-.1603.1036-.9199.5735-2.00635.9049-3.1702.9049-3.31371 0-6-2.6863-6-6zm8.9861 7.4241c-.9227.3715-1.9305.5759-2.9861.5759-1.05519 0-2.06267-.2043-2.98503-.5755l-.75053 5.6506 3.22106-1.9326c.31669-.19.71231-.19 1.029 0l3.2214 1.9328zm-7.8466-1.0694c-1.90867-1.4621-3.1395-3.7647-3.1395-6.3547 0-4.41828 3.58172-8 8-8 4.4183 0 8 3.58172 8 8 0 2.5895-1.2304 4.8917-3.1384 6.3538l1.1297 8.5147c.0505.3806-.1214.7566-.4423.9673-.321.2108-.7342.2192-1.0635.0217l-4.4855-2.6913-4.4855 2.6913c-.32928.1976-.7426.1891-1.06354-.0217s-.49281-.5868-.44225-.9675z" fill="#468d73" fill-rule="evenodd"/></svg>