<svg fill="none" viewBox="0 0 24 20" xmlns="http://www.w3.org/2000/svg"><path d="m23.4 8.125h-7.2c-.3375 0-.6.3125-.6.625v1.25c0 .3516.2625.625.6.625h7.2c.3 0 .6-.2734.6-.625v-1.25c0-.3125-.3-.625-.6-.625zm-15 1.875c2.625 0 4.8-2.22656 4.8-5 0-2.73438-2.175-5-4.8-5-2.6625 0-4.8 2.26562-4.8 5 0 2.77344 2.1375 5 4.8 5zm3.3375 1.25h-.6375c-.825.4297-1.725.625-2.7.625s-1.9125-.1953-2.7375-.625h-.6375c-2.775 0-5.025 2.3828-5.025 5.2734v1.6016c0 1.0547.7875 1.875 1.8 1.875h13.2c.975 0 1.8-.8203 1.8-1.875v-1.6016c0-2.8906-2.2875-5.2734-5.0625-5.2734z" fill="#468d73"/></svg>