<svg enable-background="new 0 0 24 18.5293999" viewBox="0 0 24 18.5293999" xmlns="http://www.w3.org/2000/svg"><path d="m20.1208 15.6051998c0 .2812996-.1916008.4839993-.4666004.4839993-.2833996 0-.4666996-.2150993-.4666996-.4839993 0-.2688007.1833-.4839001.4666996-.4839001.2749996 0 .4666004.2150994.4666004.4839001zm-12.9499702-.4839001c-.2958298 0-.46666.2151012-.46666.4839001 0 .2688999.1708298.4839993.46666.4839993.2708402 0 .4541702-.2026997.4541702-.4839993-.0041699-.2688007-.1833301-.4839001-.4541702-.4839001zm4.8958702-.0123996c-.2250004 0-.3625002.1448002-.3958998.3598003h.7959003c-.0375003-.2356987-.1834001-.3598003-.4000005-.3598003zm4.4916.0123996c-.2833004 0-.4540997.2151012-.4540997.4839001 0 .2688999.1707993.4839993.4540997.4839993.2833996 0 .4666996-.2026997.4666996-.4839993 0-.2688007-.1833-.4839001-.4666996-.4839001zm4.4125004 1.0795002c0 .0123997.0125008.0207005.0125008.0454998 0 .0123997-.0125008.0207005-.0125008.0454998-.0125008.0123997-.0125008.0207005-.0207996.0331001-.0125008.0123997-.0207996.0207005-.0457993.0207005-.0125008.0123997-.0209007.0123997-.0459003.0123997-.0125008 0-.0207996 0-.0457993-.0123997-.0125008 0-.0207996-.0123997-.0333004-.0207005-.0125008-.0123997-.0209007-.0207005-.0209007-.0331001-.0125008-.0207004-.0125008-.0331001-.0125008-.0454998 0-.0207005 0-.0331001.0125008-.0454998 0-.0207005.0125008-.0331001.0209007-.0454998.0125008-.0123997.0207996-.0123997.0333004-.0205994.0207996-.0125007.0333004-.0125007.0457993-.0125007.0209007 0 .0333996 0 .0459003.0125008.0207996.0123997.0333004.0123997.0457993.0205994.0125007.0083007.0083007.0247993.0207996.0454997zm-.0916004.0578995c.0207996 0 .0207996-.0123997.0333004-.0123997.0125008-.0123997.0125008-.0207005.0125008-.0331001s0-.0205994-.0125008-.0331001c-.0125008 0-.0207996-.0123997-.0457993-.0123997h-.0667v.1448002h.0333004v-.0578995h.0125008l.0459004.0578995h.0333004zm3.1208-14.2734093v14.5588093c0 1.0960999-.8957996 1.9853001-2 1.9853001h-20c-1.104167 0-2-.8892002-2-1.9853001v-14.5588093c0-1.096044.895833-1.9852901 2-1.9852901h20c1.1042004 0 2 .889246 2 1.9852901zm-21.3333302 5.7739c0 3.1641097 2.5875001 5.7284102 5.7708302 5.7284102 1.1333303 0 2.2458-.339201 3.1875-.9554005-3.0375004-2.4526997-3.0166702-7.0809097 0-9.5335789-.9417-.6204-2.0541697-.95542-3.1875-.95542-3.1833301-.0041403-5.7708302 2.5643397-5.7708302 5.7159892zm9.3333302 4.500009c2.9375-2.2748203 2.9250002-6.7086496 0-8.9958687-2.9250002 2.2872196-2.9375 6.7251797 0 8.9958687zm-5.9291701 3.1557999c0-.3598995-.2375002-.5956001-.6125002-.6079998-.1916599 0-.3958302.0579014-.53333.2688007-.0999999-.1695995-.2708302-.2688007-.5083299-.2688007-.15834 0-.3166699.0579014-.4416699.2233009v-.1820011h-.34167v1.5179996h.34167c0-.7817001-.1041701-1.2490997.375-1.2490997.4250002 0 .34167.4218998.34167 1.2490997h.3291602c0-.7568989-.1041598-1.2490997.375-1.2490997.4250002 0 .34167.4136009.34167 1.2490997h.34167v-.9512996zm1.87084-.5667h-.3291697v.1820011c-.1125002-.1365013-.2708302-.2233009-.4875002-.2233009-.4291701 0-.7583299.3390999-.7583299.7982006 0 .4632988.3291602.7982998.7583299.7982998.21667 0 .375-.0785999.4875002-.2234001v.1903h.3291702zm1.6874996 1.0589009c0-.6204014-.9541702-.339201-.9541702-.6287003 0-.2357998.4958296-.1984997.7708302-.0454998l.1374998-.2688007c-.3916597-.2523003-1.2583303-.2481995-1.2583303.3390999 0 .5915012.9541702.3432999.9541702.6204014 0 .2605991-.5625.2398987-.8625002.0331001l-.1458397.2605991c.4666699.3143005 1.3583402.2481003 1.3583402-.3101997zm1.4750299.3845996-.0916996-.2812004c-.1583004.0867997-.5082998.1819992-.5082998-.1695995v-.6865997h.5458002v-.3060989h-.5458002v-.4631996h-.3416996v.4631996h-.3166704v.302h.3166704v.6906986c0 .7278996.7208004.5956001.941699.4507999zm.5541-.5541992h1.1458998c0-.6700001-.3084002-.9348011-.7250004-.9348011-.4417 0-.7584.3268013-.7584.7982998 0 .8479004.9417.9885006 1.4083996.5872993l-.1583996-.2481003c-.3249997.2647-.8165998.2397996-.9124994-.2026977zm2.4625006-.8893013c-.1915998-.0826988-.4833002-.0743999-.6332998.1820011v-.1820011h-.3416996v1.5179996h.3416996v-.8561993c0-.4798012.3957996-.4176998.5333004-.3474007zm.4417.7569008c0-.4715004.4833002-.6245003.8625002-.3474007l.1583004-.2687988c-.4833002-.3764-1.3625002-.1695995-1.3625002.6203995 0 .8188992.9334002.9843006 1.3625002.6203995l-.1583004-.2688999c-.3832998.2688999-.8625002.1075992-.8625002-.3556996zm2.7791996-.7569008h-.3416996v.1820011c-.3458004-.4549007-1.2458-.1984997-1.2458.5748997 0 .794199.9333 1.0215988 1.2458.5748997v.1903h.3416996zm1.4041004 0c-.1000004-.0495987-.4582996-.1198997-.6333008.1820011v-.1820011h-.3292007v1.5179996h.3292007v-.8561993c0-.4549999.375-.4260006.5333004-.3474007zm1.6791992-.6161995h-.3292007v.7982006c-.3416004-.4507999-1.2458-.2109013-1.2458.5748997 0 .8023987.9375 1.0174999 1.2458.5748997v.1903h.3292007zm.3167-3.1061992v.1903h.0333004v-.1903h.0792007v-.0331001h-.1917v.0331001zm.2749996 5.1203994c0-.0207005 0-.0454998-.0125008-.0662003-.0125008-.0123997-.0209007-.0330009-.0333996-.0454006-.0125008-.0125008-.0333004-.0207005-.0457993-.0331001-.0207996 0-.0457993-.0123997-.0667-.0123997-.0125008 0-.0333004.0123997-.0583.0123997-.0207996.0123997-.0333004.0205994-.0457993.0331001-.0209007.0123997-.0333996.0330009-.0333996.0454006-.0125008.0207005-.0125008.0454998-.0125008.0662003 0 .0123997 0 .0331001.0125008.0578995 0 .0123997.0125008.0331001.0333996.0454998.0125008.0123997.0207996.0207005.0457993.0331001.0207996.0123997.0457993.0123997.0583.0123997.0209007 0 .0459003 0 .0667-.0123997.0125008-.0123997.0333004-.0207005.0457993-.0331001s.0209007-.0331001.0333996-.0454998c.0125008-.0247993.0125008-.0454998.0125008-.0578995zm.1333008-5.1576004h-.0583l-.0667.1448002-.0667-.1448002h-.0583v.2233009h.0333004v-.1695004l.0667.1446992h.0457993l.0583992-.1446991v.1695004h.0457993zm.1833-3.3295092c0-3.15165-2.5874996-5.72013-5.7707996-5.72013-1.1332998 0-2.2458.33916-3.1875.95543 3.0042 2.4526601 3.0500002 7.0933089 0 9.5335102.9417.6204014 2.0625.9554996 3.1875.9554996 3.1833.0041004 5.7707996-2.5602001 5.7707996-5.7243098z" fill="#468d73"/></svg>